<?xml version="1.0" encoding="UTF-8" standalone="no"?>
<svg
   xmlns:dc="http://purl.org/dc/elements/1.1/"
   xmlns:cc="http://creativecommons.org/ns#"
   xmlns:rdf="http://www.w3.org/1999/02/22-rdf-syntax-ns#"
   xmlns:svg="http://www.w3.org/2000/svg"
   xmlns="http://www.w3.org/2000/svg"
   xmlns:sodipodi="http://sodipodi.sourceforge.net/DTD/sodipodi-0.dtd"
   xmlns:inkscape="http://www.inkscape.org/namespaces/inkscape"
   inkscape:version="1.0 (4035a4fb49, 2020-05-01)"
   sodipodi:docname="running-figure.svg"
   xml:space="preserve"
   style="enable-background:new 0 0 18.467 18.467;"
   viewBox="0 0 18.467 18.467"
   y="0px"
   x="0px"
   id="Capa_1"
   version="1.1"><metadata
   id="metadata45"><rdf:RDF><cc:Work
       rdf:about=""><dc:format>image/svg+xml</dc:format><dc:type
         rdf:resource="http://purl.org/dc/dcmitype/StillImage" /></cc:Work></rdf:RDF></metadata><defs
   id="defs43" /><sodipodi:namedview
   inkscape:current-layer="Capa_1"
   inkscape:window-maximized="1"
   inkscape:window-y="-8"
   inkscape:window-x="1912"
   inkscape:cy="9.2334995"
   inkscape:cx="9.2334995"
   inkscape:zoom="46.028052"
   showgrid="false"
   id="namedview41"
   inkscape:window-height="1017"
   inkscape:window-width="1920"
   inkscape:pageshadow="2"
   inkscape:pageopacity="0"
   guidetolerance="10"
   gridtolerance="10"
   objecttolerance="10"
   borderopacity="1"
   bordercolor="#666666"
   pagecolor="#ffffff" />
<g
   style="fill:#39ff14;fill-opacity:1"
   id="g8">
	<g
   style="fill:#39ff14;fill-opacity:1"
   id="g6">
		<path
   id="path2"
   d="M17.109,5.454c-0.242-0.289-0.673-0.327-0.962-0.086l-1.894,1.591l-0.871-2.158    c-0.031-0.081-0.078-0.149-0.132-0.209c-0.178-0.396-0.487-0.736-0.913-0.933c-0.185-0.084-0.376-0.129-0.567-0.151    c-0.042-0.022-0.08-0.051-0.128-0.066L8.309,2.513C8.122,2.462,7.934,2.495,7.78,2.585C7.597,2.647,7.44,2.78,7.365,2.973    L6.11,6.2C5.974,6.551,6.148,6.947,6.5,7.085c0.35,0.136,0.747-0.039,0.884-0.391l1.06-2.725l1.518,0.422    c-0.037,0.06-0.077,0.116-0.107,0.18L7.909,8.789C7.881,8.851,7.866,8.914,7.846,8.978l-2.365,3.965l-3.958,1.324    c-0.448,0.335-0.543,0.966-0.212,1.414c0.333,0.449,0.966,0.544,1.413,0.213l4.05-1.395c0.124-0.09,0.214-0.208,0.282-0.335    C7.107,14.11,7.165,14.067,7.204,14l1.41-2.364l2.503,2.133l-2.678,3.018c-0.369,0.416-0.332,1.057,0.086,1.425    c0.417,0.371,1.056,0.332,1.427-0.086l3.342-3.765c0.104-0.116,0.166-0.25,0.208-0.39c0.025-0.076,0.025-0.155,0.031-0.234    c0-0.04,0.015-0.076,0.012-0.113c-0.009-0.276-0.121-0.544-0.347-0.735l-2.303-1.964c0.166-0.158,0.307-0.346,0.409-0.567    l1.492-3.231L13.274,8.4c0.02,0.113,0.058,0.224,0.138,0.317c0.072,0.086,0.164,0.143,0.262,0.183    c0.01,0.005,0.022,0.006,0.034,0.009c0.062,0.022,0.125,0.043,0.19,0.046c0.077,0.007,0.155-0.003,0.234-0.025    c0.002-0.001,0.003-0.001,0.003-0.001c0.021-0.005,0.042-0.001,0.063-0.01c0.111-0.042,0.196-0.113,0.269-0.196l2.718-2.307    C17.474,6.173,17.352,5.743,17.109,5.454z"
   style="fill:#39ff14;fill-opacity:1" />
		<circle
   id="circle4"
   r="1.905"
   cy="1.905"
   cx="13.671"
   style="fill:#39ff14;fill-opacity:1" />
	</g>
</g>
<g
   id="g10">
</g>
<g
   id="g12">
</g>
<g
   id="g14">
</g>
<g
   id="g16">
</g>
<g
   id="g18">
</g>
<g
   id="g20">
</g>
<g
   id="g22">
</g>
<g
   id="g24">
</g>
<g
   id="g26">
</g>
<g
   id="g28">
</g>
<g
   id="g30">
</g>
<g
   id="g32">
</g>
<g
   id="g34">
</g>
<g
   id="g36">
</g>
<g
   id="g38">
</g>
</svg>
