<?xml version="1.0" encoding="UTF-8" standalone="no"?>
<svg
   xmlns:dc="http://purl.org/dc/elements/1.1/"
   xmlns:cc="http://creativecommons.org/ns#"
   xmlns:rdf="http://www.w3.org/1999/02/22-rdf-syntax-ns#"
   xmlns:svg="http://www.w3.org/2000/svg"
   xmlns="http://www.w3.org/2000/svg"
   xmlns:sodipodi="http://sodipodi.sourceforge.net/DTD/sodipodi-0.dtd"
   xmlns:inkscape="http://www.inkscape.org/namespaces/inkscape"
   width="964"
   height="984"
   id="svg2"
   sodipodi:version="0.32"
   inkscape:version="1.0 (4035a4fb49, 2020-05-01)"
   sodipodi:docname="Downhill_sketch.svg"
   inkscape:output_extension="org.inkscape.output.svg.inkscape"
   version="1.1">
  <metadata
     id="metadata13">
    <rdf:RDF>
      <cc:Work
         rdf:about="">
        <dc:format>image/svg+xml</dc:format>
        <dc:type
           rdf:resource="http://purl.org/dc/dcmitype/StillImage" />
      </cc:Work>
    </rdf:RDF>
  </metadata>
  <defs
     id="defs11">
    <inkscape:perspective
       sodipodi:type="inkscape:persp3d"
       inkscape:vp_x="0 : 492 : 1"
       inkscape:vp_y="0 : 1000 : 0"
       inkscape:vp_z="964 : 492 : 1"
       inkscape:persp3d-origin="482 : 328 : 1"
       id="perspective15" />
  </defs>
  <sodipodi:namedview
     inkscape:window-height="1017"
     inkscape:window-width="1920"
     inkscape:pageshadow="2"
     inkscape:pageopacity="0.0"
     guidetolerance="10.0"
     gridtolerance="10.0"
     objecttolerance="10.0"
     borderopacity="1.0"
     bordercolor="#666666"
     pagecolor="#ffffff"
     id="base"
     showgrid="false"
     inkscape:zoom="0.50609756"
     inkscape:cx="482"
     inkscape:cy="531.66177"
     inkscape:window-x="1912"
     inkscape:window-y="-8"
     inkscape:current-layer="svg2"
     inkscape:document-rotation="0"
     inkscape:window-maximized="1" />
  <path
     style="fill:#39ff14;stroke:none;fill-opacity:1"
     d="M 733.53125 88.75 C 719.27919 88.612553 705.88275 97.3688 695.0625 107.09375 C 687.96648 113.47175 684.643 121.828 674 123.125 C 664.101 124.332 654.609 121.90425 645 122.65625 C 638.631 123.15425 634.44 128.78325 628 129.40625 C 619.958 130.18424 612.893 128.1295 605 128.3125 C 591.246 128.6305 577.645 132.753 564 134.25 C 556.599 135.062 549.594 133.18625 542 134.53125 C 534.63 135.83625 528.077 141.108 521 143.625 C 504.092 149.637 484.34625 155.3925 469.03125 164.9375 C 462.14324 169.23049 464.29875 178.31275 457.96875 183.46875 C 452.83976 187.64775 446.369 189.0035 441 192.6875 C 423.594 204.6335 405.7215 223.013 403.1875 245 C 401.5785 258.962 408.244 273.288 412 286 C 416.514 301.282 421.775 316.633 426.125 332 C 427.333 336.268 426.34825 340.936 427.65625 345 C 430.80526 354.786 441.03525 363.324 445.28125 373 C 447.48324 378.018 445.59275 383.75 446.96875 389 C 448.19374 393.674 449.236 402.7415 451.875 406.5625 C 455.275 411.48749 461.55575 412.735 463.46875 419 C 465.03176 424.119 458.101 441.242 455.125 446 C 452.85999 449.622 441.51625 466.041 437.03125 465.375 C 433.22026 464.80901 432.337 458.857 431.125 456 C 427.71501 447.959 422.6385 440.084 417.5625 433 C 401.76651 410.958 379.724 393.804 355 382.875 C 290.417 354.325 208.78475 376.867 169.34375 436 C 121.99575 506.988 143.172 605.6415 217 649.5625 C 244.412 665.8705 274.555 670.97575 306 669.96875 C 331.802 669.14276 359.621 653.916 380 639.25 C 386.63401 634.476 395.465 619.71 404 618.625 C 408.294 618.07999 411.65825 626.085 413.53125 629 C 417.40824 635.03698 422.914 638.4705 430 639.6875 C 439.183 641.26551 451.707 643.014 460 637.75 C 465.988 633.949 471.243 624.4265 478 622.5625 C 487.657 619.89947 501.387 628 511 628.25 C 520.043 628.48601 528.23 622.241 535 617 L 535 616 C 534.35 606.576 559.4545 605.61625 565.4375 598.78125 C 569.29948 594.36924 569.4125 588.433 568.1875 583 C 567.4215 579.605 564.34525 575.4925 567.28125 572.4375 C 570.20026 569.40152 575.286 569.71375 579 568.34375 C 585.82 565.82772 592.153 561.8485 599 559.1875 C 621.99 550.25452 644.07 538.816 667 529.875 C 679.15 525.13702 690.912 519.30725 703 514.40625 C 706.33 513.05526 713.359 508.76525 716.375 512.28125 C 720.67898 517.29826 714.8235 531.143 714.1875 537 C 712.20649 555.221 709.795 573.719 708.75 592 C 708.26198 600.533 709.9975 612.67275 704.1875 619.84375 C 700.23952 624.71672 690.763 624.916 685 626.375 C 672.407 629.56498 660.219 634.436 649 641 C 603.886 667.39398 575.31625 714.23 570.15625 766 C 560.54124 862.471 642.032 955.53225 742 941.28125 C 757.918 939.01225 773.599 934.451 788 927.25 C 803.232 919.63399 818.18325 909.435 829.90625 897 C 844.52624 881.49103 856.4815 862.89 864.1875 843 C 873.55947 818.808 876.67425 792.826 874.90625 767 C 871.86424 722.591 848.216 679.183 813 652.25 C 802.957 644.56898 791.685 637.848 780 633 C 774.359 630.65898 764.9045 629.6135 760.4375 625.4375 C 756.22852 621.50249 752.1185 611.274 749.5625 606 C 747.04649 600.811 748.71425 592.517 749.78125 587 C 752.36827 573.63299 749.1365 553.91675 755.4375 541.84375 C 756.57449 539.66572 759.62825 539.28625 761.28125 537.53125 C 766.14727 532.36523 773.65625 523.104 774.78125 516 C 777.37628 499.615 763.669 476.827 779 464 C 777.4 459.091 775.88425 453.64025 773.28125 449.15625 C 772.22226 447.33124 768.44775 445.4815 768.46875 443.3125 C 768.51174 438.73151 774.3695 439.74925 776.3125 442.15625 C 780.88953 447.82623 782.406 457.265 785 464 C 788.658 463.449 791.901 462.774 793 459 C 798.82 460.662 799.77825 471.7225 805.90625 470.0625 C 808.94824 469.2385 810.88075 465.846 811.59375 463 C 813.28576 456.25101 812.69975 448.794 814.34375 442 C 815.52772 437.111 818.392 433.281 817.875 428 C 816.77398 416.745 804.0225 411.5605 799.1875 402.8125 C 797.18052 399.18049 799.2455 394.871 797.8125 391 C 792.6445 377.035 783.464 364.171 776.625 351 C 773.08203 344.177 772.85625 336.09775 767.65625 330.09375 C 759.24128 320.37876 750.329 310.762 743.125 300 C 740.79502 296.519 736.7325 293.206 735.8125 289 C 732.01148 271.63801 739.53175 253.3895 755.09375 245.4375 C 761.03675 242.40049 772.00025 245.38325 775.40625 237.78125 C 776.67823 234.94325 778.79025 224.037 775.65625 222.125 C 773.44724 220.778 758.71975 223.53 761.59375 215.75 C 762.65874 212.86499 767.26375 213.0565 768.96875 210.5625 C 771.55073 206.78649 771.40125 201.949 774.53125 198 C 779.85327 191.284 788.008 189.6215 795 185.1875 C 797.76498 183.4335 800.635 179.47525 804 179.03125 C 812.81 177.86825 844.517 200.708 845.25 179 C 845.55697 169.889 828.83475 160.49275 823.09375 154.84375 C 800.23073 132.34775 777.844 106.291 748 92.125 C 743.12475 89.810899 738.28194 88.795816 733.53125 88.75 z M 596.0625 281.75 C 601.25839 281.89252 604.5797 287.39624 609.5625 288.65625 C 613.0385 289.53525 616.57298 287.61724 620 288.78125 C 623.887 290.10025 625.83927 293.93349 629.15625 296.0625 C 645.52125 306.5655 658.93578 321.67925 671.46875 336.90625 C 675.68675 342.03025 684.75497 343.86626 688 349.15625 C 693.128 357.51825 691.662 367.578 693.5 376 C 694.207 379.244 699.36472 392.9255 701.59375 395.3125 C 703.54475 397.4015 706.56702 398.00274 708.5 400.21875 C 711.874 404.08675 712.16749 409.70675 715.0625 413.84375 C 717.2385 416.95375 721.08653 416.93049 723.6875 419.4375 C 729.2195 424.7695 725.93775 432.716 725.21875 439 C 724.51575 445.138 727.41003 452.54949 719 454.6875 C 712.428 456.3585 704.591 453.78324 698 453.15625 C 688.291 452.23125 678.729 452.47624 669 451.28125 C 657.491 449.86825 645.575 451.47475 634 450.96875 C 620.048 450.35775 605.935 448.13226 592 448.78125 C 582.188 449.23725 570.863 447.64925 561 446.90625 C 557.934 446.67525 553.63777 446.03876 552.21875 442.84375 C 551.02175 440.14675 552.793 436.816 552.75 434 C 552.609 424.781 552.05953 415.153 550.8125 406 C 550.3975 402.962 547.02898 397.07699 550.375 394.75 C 553.63 392.485 567.981 401.11826 572 402.53125 C 574.555 403.42925 579.26626 402.8785 579.53125 399.3125 C 579.83525 395.2305 574.01098 391.82551 571 390.3125 C 562.538 386.0595 550.75772 385.65624 545.21875 376.90625 C 541.55975 371.12425 541.45648 361.23651 539.9375 354.5625 C 538.0195 346.1335 532.10924 338.455 529.78125 330 C 527.71425 322.496 529.76602 314.788 527.75 307 C 526.225 301.112 516.30323 289.3175 522.15625 284.4375 C 526.04425 281.1955 536.808 285 542 285 C 560.232 285 576.852 283.8545 595 281.8125 C 595.364 281.77156 595.71611 281.7405 596.0625 281.75 z M 299.71875 406.9375 C 310.59267 407.00594 325.95775 408.019 328 415 C 335.626 413.58 343.708 419.15649 350 423.0625 C 368.872 434.7775 381.074 451.613 391 471 C 394.055 476.966 402.51901 493.33349 397.25 499.5625 C 394.642 502.6455 390.493 501.46176 387 501.59375 C 378.463 501.91675 366.812 503.16976 359 499.09375 C 349.558 494.16675 341.841 486.37924 332 482.03125 C 315.896 474.91625 294.61325 475.21525 279.03125 484.40625 C 269.86325 489.81325 267.56476 500.1005 260.59375 506.5625 C 257.73175 509.2145 253.5455 508.717 250.1875 510.375 C 246.9655 511.965 244.86025 515.04823 241.90625 517.03125 C 238.09025 519.59125 229.82775 521.98803 230.46875 528 C 231.29575 535.746 249.282 538.498 255 540.75 C 260.049 542.737 261.70076 547.64072 264.59375 551.71875 C 267.06075 555.19475 271.81576 558.00876 273.21875 562.09375 C 275.46175 568.62375 267.244 580.941 262 584 L 262 585 C 288.523 596.315 318.106 594.84902 347 595 C 354.844 595.041 362.021 597.065 370 597 C 365.993 606.381 352.71 613.63727 344 618.28125 C 313.312 634.64425 275.175 636.04726 244 619.90625 C 187.244 590.52125 168.78 519.528 197.25 464 C 215.101 429.185 252.175 407 291 407 C 292.966 407 296.09411 406.91469 299.71875 406.9375 z M 536.75 464.40625 C 537.18522 464.39105 537.60269 464.40056 538 464.4375 C 556.009 466.1105 574.001 467.13076 592 468.84375 C 601.586 469.75675 611.968 469.173 621 473 C 621.631 469.212 632.599 471.63101 636 471.75 C 652.555 472.329 667.895 472.273 683 480 L 689 487 L 689 489 C 680.278 493.638 670.617 499.28049 661 501.8125 C 650.509 504.5745 629.389 505.772 623 517 L 617.84375 514.4375 L 617 515 L 617 514 L 615 513 L 610 514 L 610 513 L 613 512 L 613 511 C 610.377 510.724 608 509.91 608 513 L 607 513 C 606.9 507.301 613.098 509.646 617 510 L 617 514 L 617.84375 514.4375 L 623 511 L 620 510 L 620 496 L 621 496 L 623 498 L 620 491 L 619 491 L 614 493 C 611.614 488.108 604.164 487.335 599 487 C 598.126 481.942 596.407 478.721 592 476 L 594 482 L 590 488 C 585.446 486.881 580.74 485.43 578 490 L 575 489 C 575.268 493.894 576.653 496.614 581 499 L 583 509 L 580 506 L 576 508 L 575 501 L 571 501 L 572 504 L 568 502 L 569 508 C 565.284 507.204 566 504.363 566 501 L 562 500 L 561 501 L 563 506 L 555 507 C 555.524 502.908 554.549 501.078 551 499 L 552 507 L 546 507 C 545.571 499.178 540.35 496.607 533 498 C 532.829 501.726 529.262 505.157 526 502 L 525 502 L 524 506 L 527 506 L 527 507 L 519 506 C 518.435 502.235 515.283 502.476 512 502 L 512 506 L 508 503 L 512 502 L 512 500 L 506 498 C 508.724 488.811 506.426 476.18 520 477 C 519.90156 470.56031 530.2217 464.63427 536.75 464.40625 z M 708.1875 476.15625 C 711.06273 476.10218 713.83063 476.85812 716 479 C 710.945 482.594 706.899 481.795 703 477 C 704.70137 476.51775 706.46236 476.18869 708.1875 476.15625 z M 602 488 L 603 489 L 602 488 z M 584 499 L 591 499 L 592 512 L 591 512 C 591.28417 508.55338 589.7485 507.18201 586.84375 506.25 L 586 507.5 L 586 509 L 585 509 L 586 507.5 L 586 506 C 586.29855 506.0816 586.56953 506.16201 586.84375 506.25 L 589 503 L 589 502 L 584 499 z M 534 502 L 535 504 L 533 504 L 534 502 z M 545 514 L 549 514 L 549 519 L 559 522 L 555 515 L 559 515 C 562.22 524.059 570.572 521.121 578 524 L 577 519 L 587.28125 524.78125 L 609 523 C 605.797 527.885 597.475 530.423 592 532 L 593 536 L 583 539 C 575.697 535.465 564.07 548.08423 556 548.28125 C 545.559 548.53525 542.428 536.665 536 531 L 538 529 L 534 524 C 529.866 523.453 530.046 518.573 530 515 L 549 522 L 545 514 z M 507.71875 518.8125 C 515.88752 518.39956 526.87783 537.71937 519.5625 541.90625 C 513.1495 545.57525 493.697 524.32223 506.125 519.15625 C 506.63825 518.94294 507.17417 518.84003 507.71875 518.8125 z M 451.3125 527.34375 C 454.16945 527.47008 454.94031 531.83613 454.5625 535 C 453.9445 540.173 443.81624 558.41598 437.15625 555.75 C 433.36125 554.231 435.01974 548.909 435.59375 546 C 436.90775 539.349 439.065 524.229 449 528 C 449.89344 527.51063 450.6532 527.3146 451.3125 527.34375 z M 357.9375 533.90625 C 361.44803 533.9098 365.07688 534.55189 367.65625 536.40625 C 372.05225 539.56725 365.274 545.01177 362 545.59375 C 354.661 546.89775 337.65199 536.95953 352 534.4375 C 353.77863 534.12475 355.83118 533.90412 357.9375 533.90625 z M 503.15625 538.1875 C 508.23615 537.97333 512.80782 546.92315 505.96875 549.0625 C 499.46575 551.0965 496.27824 540.07974 502.15625 538.34375 C 502.49619 538.24331 502.81759 538.20178 503.15625 538.1875 z M 734 545 L 735 558 L 729.6875 598 L 725 614 L 734 545 z M 529.6875 554.21875 C 535.27455 554.31592 536.14785 560.58176 529 562.53125 C 521.408 564.60225 519.624 556.57947 527 554.5625 C 527.9805 554.29437 528.88935 554.20487 529.6875 554.21875 z M 332.34375 558.46875 C 344.08457 557.83265 356.80063 572.09563 365 577.90625 C 368.477 580.37025 373.17349 585.87928 366.9375 588.40625 C 360.7685 590.90525 349.453 588.00551 343 587.1875 C 327.938 585.2785 310.66151 588.95574 296.0625 584.96875 C 293.1775 584.18075 287.03699 570.81274 288.75 568.46875 C 291.12 565.22575 297.745 567.20953 301 567.5625 C 313.078 568.8715 319.4 561.30549 330 558.8125 C 330.77238 558.63081 331.56103 558.51116 332.34375 558.46875 z M 700 661 C 695.509 682.768 697.64575 706.76299 692.21875 728 C 691.13875 732.224 687.71773 734.49628 686.21875 738.28125 C 684.94175 741.50925 686.82975 744.638 684.96875 748 C 683.27875 751.053 678.869 754.191 679.125 758 C 679.419 762.376 685.06298 764.447 685.125 769 C 685.169 772.299 682.148 775.062 681 778 C 679.175 782.672 679.05376 791.258 680.71875 796 C 684.88275 807.863 694.18 822.183 706 827.5 C 731.829 839.117 763.07853 820.281 770.5625 795 C 775.0145 779.961 775.66376 758.74652 762.96875 747.4375 C 758.05375 743.0605 752.784 738.3785 747 735.1875 C 743.269 733.1295 738.529 732.34476 736.75 727.96875 C 734.172 721.62375 737.88775 713.397 738.71875 707 C 740.69875 691.755 741.257 676.287 743 661 C 759.886 662.379 776.906 672.27451 790 682.4375 C 857.746 735.0245 847.312 850.13998 770 888.25 C 757.824 894.252 743.688 898.83703 730 899 C 676.931 899.631 629.5835 870.708 613.4375 818 C 597.6785 766.556 614.802 708.06076 660 677.34375 C 671.477 669.54375 685.953 662.147 700 661 z "
     id="path6" />
</svg>
