<?xml version="1.0" encoding="UTF-8" standalone="no"?>
<svg
   xmlns:dc="http://purl.org/dc/elements/1.1/"
   xmlns:cc="http://creativecommons.org/ns#"
   xmlns:rdf="http://www.w3.org/1999/02/22-rdf-syntax-ns#"
   xmlns:svg="http://www.w3.org/2000/svg"
   xmlns="http://www.w3.org/2000/svg"
   xmlns:sodipodi="http://sodipodi.sourceforge.net/DTD/sodipodi-0.dtd"
   xmlns:inkscape="http://www.inkscape.org/namespaces/inkscape"
   inkscape:version="1.0 (4035a4fb49, 2020-05-01)"
   sodipodi:docname="roadbike1.svg"
   id="svg56"
   preserveAspectRatio="xMidYMid meet"
   viewBox="0 0 1280.000000 978.000000"
   height="978.000000pt"
   width="1280.000000pt"
   version="1.0">
  <metadata
     id="metadata62">
    <rdf:RDF>
      <cc:Work
         rdf:about="">
        <dc:format>image/svg+xml</dc:format>
        <dc:type
           rdf:resource="http://purl.org/dc/dcmitype/StillImage" />
      </cc:Work>
    </rdf:RDF>
  </metadata>
  <defs
     id="defs60" />
  <sodipodi:namedview
     inkscape:current-layer="svg56"
     inkscape:window-maximized="1"
     inkscape:window-y="-8"
     inkscape:window-x="1912"
     inkscape:cy="652"
     inkscape:cx="853.33333"
     inkscape:zoom="0.61464844"
     showgrid="false"
     id="namedview58"
     inkscape:window-height="1017"
     inkscape:window-width="1920"
     inkscape:pageshadow="2"
     inkscape:pageopacity="0"
     guidetolerance="10"
     gridtolerance="10"
     objecttolerance="10"
     borderopacity="1"
     bordercolor="#666666"
     pagecolor="#ffffff" />
  <g
     style="fill:#39ff14;fill-opacity:1"
     id="g54"
     stroke="none"
     fill="#000000"
     transform="translate(0.000000,978.000000) scale(0.100000,-0.100000)">
    <path
       style="fill:#39ff14;fill-opacity:1"
       id="path2"
       d="M3865 9071 c-444 -137 -575 -238 -794 -608 -74 -125 -99 -245 -77 -369 26 -148 113 -329 159 -329 9 0 79 51 156 113 l139 114 102 227 c92 206 104 229 133 242 25 11 65 63 182 240 83 124 187 271 233 327 45 55 82 103 82 106 0 21 -122 -4 -315 -63z m-131 -247 c28 -11 17 -50 -30 -114 -51 -67 -186 -187 -221 -196 -32 -8 -53 2 -53 25 0 40 178 234 250 272 42 22 35 20 54 13z m-416 -533 c6 -59 -79 -272 -113 -285 -30 -11 -38 4 -31 65 10 100 36 184 68 223 39 48 72 47 76 -3z" />
    <path
       style="fill:#39ff14;fill-opacity:1"
       id="path4"
       d="M4130 9009 c-77 -94 -144 -185 -174 -236 -5 -10 -1 -11 19 -3 15 6 37 10 51 10 19 0 24 -5 24 -24 0 -50 -113 -146 -172 -146 -24 0 -35 -11 -78 -77 -33 -52 -63 -85 -87 -98 -34 -19 -44 -38 -136 -241 l-99 -221 -119 -98 c-65 -55 -117 -101 -114 -103 10 -11 88 26 158 76 55 38 111 92 188 181 127 147 275 281 350 316 59 27 73 23 83 -25 5 -27 10 -30 41 -30 27 0 48 10 88 43 70 57 130 91 207 117 69 23 200 102 200 121 0 6 -9 24 -21 40 -16 23 -28 29 -58 29 -48 0 -61 14 -61 67 0 32 5 45 20 53 19 10 19 13 5 39 -9 19 -25 30 -45 35 -29 5 -36 17 -97 146 -37 77 -70 140 -74 140 -5 0 -49 -50 -99 -111z m128 -318 c26 -16 8 -53 -41 -87 -96 -66 -225 -95 -246 -56 -14 27 10 57 72 89 106 53 185 73 215 54z" />
    <path
       style="fill:#39ff14;fill-opacity:1"
       id="path6"
       d="M7220 9080 c-30 -4 -91 -17 -135 -28 -119 -31 -115 -30 -330 -42 -110 -6 -308 -24 -440 -40 -719 -87 -908 -112 -985 -130 -95 -23 -323 -133 -427 -206 -71 -51 -86 -57 -212 -90 -61 -16 -123 -40 -174 -70 -43 -25 -101 -52 -128 -60 l-50 -15 3 -187 c3 -201 -5 -249 -45 -277 -29 -21 -96 -19 -197 6 -134 32 -412 89 -437 89 -25 0 -40 -17 -26 -31 5 -5 37 -12 71 -15 35 -4 65 -11 68 -16 8 -12 -56 -117 -119 -195 -49 -62 -88 -88 -146 -99 -17 -4 -31 -10 -31 -14 0 -7 77 -99 95 -113 13 -10 126 2 143 15 19 16 14 56 -14 109 l-27 48 59 87 c37 55 72 94 96 108 l36 21 114 -28 c107 -25 308 -63 373 -69 25 -3 30 -7 28 -28 -2 -14 -6 -82 -9 -152 l-7 -127 27 -11 c15 -5 61 -10 103 -10 59 0 83 5 109 21 46 28 115 30 144 4 41 -37 47 -56 140 -458 13 -54 27 -100 31 -103 13 -8 39 9 125 81 106 89 244 180 313 206 30 11 89 27 129 36 94 19 104 12 110 -83 3 -46 9 -67 19 -71 8 -3 163 11 343 32 308 35 369 38 356 16 -3 -5 -88 -65 -188 -132 -100 -68 -201 -142 -226 -164 l-45 -41 28 -54 c80 -160 263 -350 435 -449 174 -101 249 -141 267 -141 10 0 47 20 82 44 37 26 95 55 141 70 43 14 208 90 367 168 276 137 427 210 503 242 20 8 80 39 133 70 97 54 220 110 487 219 298 122 363 159 390 221 59 134 65 396 14 639 -36 173 -120 314 -280 466 -58 55 -109 101 -114 101 -5 0 -27 24 -50 52 -48 61 -91 92 -212 154 -98 49 -105 62 -62 114 l27 31 -20 27 c-33 45 -359 206 -478 235 -73 18 -221 27 -295 17z" />
    <path
       style="fill:#39ff14;fill-opacity:1"
       id="path8"
       d="M4223 8333 c-26 -20 -61 -47 -76 -60 -52 -42 -167 -27 -167 23 0 8 -2 14 -5 14 -29 0 -183 -119 -264 -204 l-34 -35 24 -9 c67 -25 94 -23 135 8 122 94 166 112 281 114 66 0 76 -2 118 -32 58 -41 69 -41 61 -1 -3 17 -6 74 -6 125 0 52 -4 94 -9 94 -5 0 -31 -16 -58 -37z" />
    <path
       style="fill:#39ff14;fill-opacity:1"
       id="path10"
       d="M3575 7928 c-25 -30 -26 -33 -9 -39 11 -4 40 -8 66 -8 41 -1 50 3 72 32 l26 32 -28 6 c-68 16 -99 10 -127 -23z" />
    <path
       style="fill:#39ff14;fill-opacity:1"
       id="path12"
       d="M3838 7872 l-33 -30 58 -7 c73 -9 89 -3 85 32 -3 24 -8 28 -40 31 -29 2 -43 -3 -70 -26z" />
    <path
       style="fill:#39ff14;fill-opacity:1"
       id="path14"
       d="M8291 6985 c-128 -57 -236 -107 -239 -109 -5 -6 23 -13 111 -26 l69 -11 121 97 c150 120 190 154 180 154 -4 0 -113 -47 -242 -105z" />
    <path
       style="fill:#39ff14;fill-opacity:1"
       id="path16"
       d="M7883 6817 c-28 -12 -60 -30 -70 -38 -10 -9 -42 -30 -71 -46 l-53 -30 93 -8 c119 -9 176 -31 268 -105 93 -75 194 -126 285 -144 128 -25 279 -41 375 -40 117 1 161 17 354 123 246 135 289 200 143 217 -89 10 -90 29 -5 50 l53 12 -69 1 c-38 1 -196 -8 -350 -20 -328 -24 -409 -22 -669 20 -103 17 -198 31 -210 31 -12 -1 -45 -11 -74 -23z" />
    <path
       style="fill:#39ff14;fill-opacity:1"
       id="path18"
       d="M3580 6788 c-32 -17 -60 -73 -60 -120 0 -26 10 -49 36 -83 l35 -47 1 -181 c0 -344 2 -322 -33 -361 -17 -20 -28 -40 -24 -46 3 -5 39 -10 79 -10 55 0 77 4 87 16 10 13 13 72 14 260 0 185 3 244 12 244 7 0 45 -21 86 -48 40 -26 101 -56 135 -66 71 -22 75 -33 33 -81 -27 -32 -28 -36 -28 -143 0 -93 -4 -117 -22 -156 -31 -63 -89 -110 -180 -143 -68 -25 -88 -28 -191 -27 -140 1 -239 25 -359 86 -77 39 -86 47 -98 84 -23 70 -44 84 -123 84 -59 0 -73 -3 -100 -26 -49 -42 -64 -78 -49 -122 7 -20 23 -53 35 -72 31 -45 30 -59 -7 -166 -31 -88 -32 -92 -31 -274 l0 -185 -36 -38 c-45 -46 -35 -57 48 -57 106 0 97 -20 102 234 3 200 6 225 24 256 11 19 33 41 48 48 24 12 34 12 71 -2 23 -9 67 -34 96 -54 l54 -38 5 -124 c4 -97 10 -134 24 -162 11 -21 23 -38 27 -38 4 0 34 26 66 58 l59 58 -4 69 -3 70 69 68 69 68 131 33 c236 60 323 118 391 261 23 47 50 89 65 98 34 23 97 22 251 -3 157 -26 269 -30 313 -11 29 12 92 88 92 111 0 8 -56 22 -304 76 -70 16 -130 34 -133 40 -2 6 16 44 42 84 51 80 63 121 46 154 -24 43 -64 57 -234 76 -205 24 -339 55 -375 85 -15 12 -35 45 -45 73 -26 72 -55 95 -125 99 -34 2 -67 -1 -82 -9z" />
    <path
       style="fill:#39ff14;fill-opacity:1"
       id="path20"
       d="M7203 6477 l-382 -192 -15 -49 c-28 -88 -28 -88 87 -139 237 -106 564 -216 690 -233 45 -6 46 -6 65 32 10 22 27 63 36 91 12 35 76 135 192 300 96 136 174 250 174 254 0 4 -21 26 -46 48 -65 57 -121 72 -284 76 l-135 4 -382 -192z" />
    <path
       style="fill:#39ff14;fill-opacity:1"
       id="path22"
       d="M8166 6428 c-3 -17 -6 -50 -6 -73 0 -29 -41 -164 -126 -412 -70 -202 -131 -374 -136 -381 -6 -6 -24 -16 -41 -20 -24 -6 -33 -15 -38 -39 -3 -17 -21 -50 -40 -73 -34 -41 -34 -41 -89 -36 -30 3 -363 35 -740 71 -377 36 -722 69 -768 73 -45 4 -85 6 -87 4 -6 -6 84 -182 93 -182 4 0 158 -13 342 -30 184 -16 524 -45 755 -65 231 -20 428 -38 438 -41 36 -11 26 -47 -107 -403 -86 -227 -87 -231 -119 -264 -36 -35 -90 -190 -93 -267 -2 -54 -31 -147 -167 -545 -91 -264 -191 -552 -222 -640 -31 -88 -62 -178 -68 -200 -14 -47 -151 -308 -171 -324 -10 -9 -36 4 -112 54 -105 69 -136 77 -205 54 -52 -18 -54 -24 -24 -74 30 -53 25 -50 310 -167 94 -39 174 -74 179 -78 10 -10 -31 -200 -48 -217 -8 -9 -36 -8 -120 7 -61 11 -112 18 -114 15 -16 -16 83 -56 191 -76 55 -10 61 -9 129 22 66 31 71 32 83 16 9 -13 47 -24 126 -37 144 -25 159 -25 159 -1 0 10 -6 23 -12 29 -14 11 -266 44 -278 37 -17 -11 -27 59 -12 82 7 12 375 47 757 73 88 6 358 29 600 51 242 21 532 47 645 57 l205 17 3 36 c3 39 -116 295 -426 915 -218 436 -354 723 -350 739 5 22 20 6 70 -75 25 -41 174 -282 331 -536 158 -253 289 -467 292 -475 5 -13 -5 -14 -60 -11 -69 5 -75 0 -49 -36 22 -32 114 -30 114 3 0 8 7 11 18 8 10 -2 28 4 39 14 l21 18 -339 563 c-284 471 -338 566 -329 582 8 15 -1 36 -55 115 -36 52 -65 99 -65 104 0 5 23 18 50 29 l50 21 0 58 0 59 -88 57 c-105 67 -121 83 -129 130 -5 31 -2 37 23 53 35 22 44 34 44 57 0 26 -65 23 -88 -4 -58 -72 -58 -72 -83 -66 -25 7 -95 107 -226 326 -76 125 -79 154 -30 227 29 44 36 49 75 52 42 3 42 3 42 42 0 56 -8 70 -41 70 -18 0 -32 6 -36 16 -7 19 235 705 256 722 8 6 33 12 54 12 34 0 38 2 27 15 -19 23 -4 45 30 45 30 0 31 2 28 38 l-3 37 -60 9 c-33 4 -85 16 -116 26 l-57 18 -6 -30z m-229 -1386 c33 -21 417 -846 611 -1312 33 -80 117 -266 186 -413 69 -148 126 -273 126 -278 0 -5 -23 -9 -50 -9 -47 0 -49 1 -38 19 13 21 4 36 -77 141 -19 25 -35 55 -35 66 0 12 -7 27 -15 34 -16 14 -24 8 -180 -129 -79 -70 -140 -101 -196 -101 -15 0 -85 14 -155 31 l-128 31 -23 -26 c-13 -15 -23 -31 -23 -35 0 -4 48 -12 108 -18 94 -9 69 -10 -216 -11 l-323 -2 3 -27 3 -28 182 -3 182 -2 -52 -57 c-96 -106 -119 -125 -303 -251 -16 -11 -12 -12 31 -8 28 3 124 13 215 21 91 9 269 36 395 60 127 24 300 57 385 74 206 39 206 39 214 95 4 25 4 50 1 56 -4 6 11 10 39 10 27 0 51 6 60 16 14 14 22 1 84 -128 112 -234 135 -286 129 -301 -4 -10 -31 -17 -94 -21 -48 -4 -245 -23 -438 -41 -517 -51 -559 -54 -784 -70 -243 -17 -509 -19 -583 -4 -89 18 -190 52 -195 65 -3 7 20 75 51 151 30 76 65 177 76 224 30 120 69 181 83 129 4 -15 14 -20 37 -20 27 0 31 3 28 23 -2 17 -11 23 -37 25 -30 3 -33 6 -28 30 3 15 62 214 132 442 70 228 144 471 165 540 36 119 39 125 69 135 30 9 34 16 68 124 19 64 39 143 43 176 10 71 118 432 165 548 12 29 74 47 102 29z m646 -2079 c-46 -2 -120 -2 -165 0 -46 1 -9 3 82 3 91 0 128 -2 83 -3z" />
    <path
       style="fill:#39ff14;fill-opacity:1"
       id="path24"
       d="M8159 4257 c-118 -71 -345 -252 -414 -329 -25 -29 -104 -138 -174 -243 l-127 -190 -73 -202 c-67 -187 -97 -289 -99 -338 0 -11 -4 -92 -8 -180 -7 -160 0 -299 16 -325 6 -9 31 -14 82 -14 l73 -1 -3 140 c-8 311 41 588 138 785 48 98 131 244 168 295 88 121 353 367 486 450 42 26 76 51 76 56 0 21 -61 129 -73 129 -7 0 -38 -15 -68 -33z" />
    <path
       style="fill:#39ff14;fill-opacity:1"
       id="path26"
       d="M8076 3795 c-57 -44 -88 -57 -174 -70 -39 -6 -49 -14 -88 -68 -25 -33 -43 -66 -40 -72 2 -6 40 -68 85 -138 101 -159 120 -196 128 -252 6 -51 -12 -41 176 -89 94 -23 101 -24 150 -9 51 15 75 32 212 156 l59 54 -105 104 c-83 82 -128 138 -213 267 -60 89 -114 162 -120 162 -7 0 -39 -20 -70 -45z" />
    <path
       style="fill:#39ff14;fill-opacity:1"
       id="path28"
       d="M8585 2779 c-285 -61 -639 -121 -1010 -172 l-90 -12 0 -40 0 -40 215 -9 215 -8 120 35 c66 20 291 81 500 137 208 55 383 104 389 110 6 6 4 15 -4 25 -21 25 -137 17 -335 -26z" />
    <path
       style="fill:#39ff14;fill-opacity:1"
       id="path30"
       d="M4172 5985 c-23 -10 -39 -27 -52 -58 -27 -60 -36 -123 -20 -142 15 -18 63 -20 90 -3 16 10 23 9 43 -10 22 -21 27 -22 78 -11 67 14 109 39 132 78 10 17 39 45 65 63 l46 32 -164 32 c-194 38 -177 37 -218 19z" />
    <path
       style="fill:#39ff14;fill-opacity:1"
       id="path32"
       d="M4983 5550 c-126 -97 -198 -142 -375 -235 l-166 -88 -32 -71 c-132 -294 -565 -1286 -820 -1878 -88 -204 -95 -217 -131 -238 l-39 -21 0 -66 0 -66 92 7 c50 4 95 9 100 12 4 3 8 34 8 70 l0 64 396 768 c495 958 513 992 528 992 12 0 200 -201 1025 -1095 187 -203 347 -371 354 -373 7 -1 17 11 23 27 8 21 20 31 43 35 17 3 44 9 60 12 32 6 59 52 44 77 -4 7 -291 372 -638 810 -365 462 -635 813 -643 834 -24 69 -20 123 13 176 25 39 40 51 95 74 59 24 79 27 228 31 119 3 162 7 159 15 -2 7 -17 51 -33 100 l-28 87 -92 0 -92 0 -79 -60z" />
    <path
       style="fill:#39ff14;fill-opacity:1"
       id="path34"
       d="M3705 5314 c-109 -36 -185 -43 -205 -19 -26 31 -64 18 -132 -45 -74 -68 -152 -199 -146 -248 3 -25 8 -28 60 -36 52 -7 57 -11 63 -37 5 -23 14 -31 53 -41 38 -11 48 -19 55 -44 8 -28 18 -34 112 -66 l104 -36 75 43 c143 82 336 228 336 255 0 5 -12 10 -27 12 -22 2 -41 22 -90 93 -35 50 -76 116 -91 147 -20 42 -32 57 -47 57 -11 -1 -65 -16 -120 -35z" />
    <path
       style="fill:#39ff14;fill-opacity:1"
       id="path36"
       d="M4152 4971 c-14 -9 -42 -92 -42 -125 0 -51 -20 -94 -50 -106 -25 -10 -45 -9 -123 9 -120 28 -142 27 -214 -9 l-61 -31 -79 31 c-43 17 -88 38 -100 46 -38 24 -103 27 -221 10 -460 -68 -826 -252 -1129 -569 -120 -127 -204 -244 -277 -387 -132 -258 -186 -529 -165 -828 25 -354 175 -682 439 -956 324 -336 749 -538 1260 -597 128 -15 420 -7 570 16 575 86 1062 402 1289 835 51 97 101 218 101 244 0 18 -96 80 -113 73 -7 -3 -19 -25 -26 -48 -7 -24 -33 -86 -57 -138 -195 -415 -593 -705 -1122 -817 -145 -31 -478 -44 -632 -25 -564 69 -1023 335 -1307 756 -88 131 -158 293 -200 465 -24 95 -27 123 -26 300 0 216 10 280 68 457 73 220 183 392 364 573 145 145 270 237 426 314 141 70 218 99 385 144 134 35 138 36 372 40 311 5 439 -14 465 -69 11 -23 21 -27 79 -33 37 -4 68 -5 70 -3 12 12 161 353 157 360 -2 4 -18 7 -34 7 -25 0 -30 5 -36 30 -6 35 -14 42 -31 31z" />
    <path
       style="fill:#39ff14;fill-opacity:1"
       id="path38"
       d="M5541 4651 c-9 -6 -12 -18 -7 -36 6 -23 1 -33 -28 -60 -31 -28 -36 -39 -36 -79 0 -61 20 -108 59 -135 27 -20 31 -27 26 -55 -8 -40 20 -83 220 -336 189 -240 252 -310 276 -310 24 0 24 12 -2 96 -47 154 -103 280 -210 474 -61 113 -136 256 -165 318 -41 88 -57 112 -73 112 -11 0 -23 5 -26 10 -8 12 -16 12 -34 1z" />
    <path
       style="fill:#39ff14;fill-opacity:1"
       id="path40"
       d="M4441 4522 l-30 -59 122 -80 c435 -287 690 -738 743 -1312 l7 -73 38 6 c85 14 89 18 89 95 0 135 -53 383 -120 559 -105 274 -314 565 -529 738 -107 87 -255 184 -278 184 -7 0 -26 -26 -42 -58z" />
    <path
       style="fill:#39ff14;fill-opacity:1"
       id="path42"
       d="M6983 4477 c-66 -65 -74 -78 -89 -137 -9 -36 -23 -76 -31 -89 -8 -13 -15 -39 -15 -58 0 -22 -9 -45 -26 -65 -18 -21 -45 -93 -87 -230 -58 -187 -61 -203 -53 -255 13 -83 58 -212 86 -245 24 -28 26 -29 114 -26 l90 3 17 45 c16 43 19 45 54 44 45 -2 48 13 7 27 -17 7 -30 18 -30 27 0 10 20 76 43 147 l43 130 44 1 c55 1 63 18 16 34 -42 14 -43 20 -16 115 11 38 20 84 20 102 0 17 7 38 15 47 8 8 15 20 15 26 0 6 12 46 26 88 48 137 28 233 -59 289 -23 16 -48 34 -55 40 -28 26 -57 13 -129 -60z" />
    <path
       style="fill:#39ff14;fill-opacity:1"
       id="path44"
       d="M8941 4519 c-82 -9 -305 -57 -378 -82 -66 -22 -64 -38 12 -145 1 -1 23 6 48 17 125 54 407 101 600 101 161 0 289 -22 462 -81 639 -216 1076 -664 1226 -1255 55 -221 59 -473 9 -710 -62 -299 -218 -584 -444 -810 -167 -166 -333 -280 -539 -371 -220 -97 -395 -138 -653 -153 -329 -19 -632 46 -924 196 -171 88 -293 177 -436 319 -205 202 -331 396 -400 615 -15 47 -32 90 -38 96 -11 11 -160 4 -172 -9 -3 -3 9 -52 27 -109 37 -116 139 -326 214 -438 261 -392 667 -670 1164 -795 141 -35 233 -45 419 -45 377 0 621 55 927 208 203 101 356 214 516 379 264 272 415 559 501 948 18 83 22 131 22 285 0 284 -23 397 -136 660 -105 247 -246 451 -447 650 -141 139 -250 215 -456 316 -310 153 -547 213 -865 219 -96 2 -213 -1 -259 -6z" />
    <path
       style="fill:#39ff14;fill-opacity:1"
       id="path46"
       d="M6470 4022 c-87 -36 -230 -70 -333 -77 -59 -4 -107 -11 -107 -16 0 -4 9 -30 19 -56 10 -27 40 -116 65 -199 53 -174 60 -253 25 -278 -31 -21 -18 -47 49 -97 31 -23 83 -65 115 -92 40 -34 79 -56 130 -74 71 -24 73 -24 135 -8 59 16 65 21 117 88 30 39 55 80 55 91 0 34 -216 723 -229 730 -3 2 -22 -3 -41 -12z" />
    <path
       style="fill:#39ff14;fill-opacity:1"
       id="path48"
       d="M6020 3361 c-44 -8 -60 -38 -60 -114 0 -48 -4 -62 -25 -83 -30 -30 -45 -24 -45 18 0 28 -2 30 -27 25 -16 -3 -41 -10 -57 -17 -26 -9 -28 -14 -23 -45 7 -41 -2 -50 -66 -67 -37 -10 -50 -10 -55 0 -11 17 -82 -3 -105 -30 -16 -20 -56 -33 -263 -88 -91 -24 -104 -37 -123 -127 -17 -84 -1 -109 115 -178 91 -54 103 -59 203 -73 l107 -16 234 47 c220 44 398 72 600 96 47 6 145 19 219 30 156 23 189 41 232 122 23 42 26 56 18 82 -6 18 -30 106 -54 196 -24 90 -46 165 -47 167 -2 2 -36 -39 -76 -91 -72 -94 -73 -95 -142 -116 l-70 -21 -80 27 c-64 21 -96 39 -148 84 -37 32 -88 72 -114 90 -27 17 -55 45 -63 61 -16 31 -23 32 -85 21z" />
    <path
       style="fill:#39ff14;fill-opacity:1"
       id="path50"
       d="M9290 2986 c-57 -15 -105 -44 -149 -90 l-35 -36 76 -158 c107 -220 105 -269 -9 -312 -32 -12 -93 -25 -137 -30 -43 -5 -81 -12 -84 -15 -3 -3 3 -31 15 -63 19 -53 23 -58 59 -66 67 -14 78 -22 111 -77 31 -52 32 -57 25 -124 -7 -66 -8 -70 -34 -73 -23 -3 -208 17 -1273 138 -137 16 -252 27 -254 24 -3 -3 18 -63 23 -64 0 0 370 -43 821 -94 786 -90 821 -94 844 -77 14 9 35 33 47 53 l23 35 -33 74 c-17 41 -49 100 -69 132 l-37 58 62 66 c35 36 76 77 93 92 16 14 48 45 71 69 23 23 46 42 52 42 19 0 71 70 79 107 4 21 8 76 8 123 0 73 -4 92 -27 135 -30 58 -66 94 -123 124 -45 24 -79 25 -145 7z" />
    <path
       style="fill:#39ff14;fill-opacity:1"
       id="path52"
       d="M5871 2590 c-255 -49 -288 -57 -280 -65 3 -2 74 -22 158 -44 l153 -40 15 39 c28 70 66 67 251 -16 322 -145 339 -154 368 -195 29 -42 44 -49 218 -89 49 -12 92 -18 97 -13 9 9 39 142 39 172 0 13 -25 28 -97 56 -54 21 -210 85 -348 142 -166 69 -261 103 -285 102 -19 0 -149 -23 -289 -49z" />
  </g>
</svg>
