<?xml version="1.0" encoding="UTF-8" standalone="no"?>
<svg
   xmlns:dc="http://purl.org/dc/elements/1.1/"
   xmlns:cc="http://creativecommons.org/ns#"
   xmlns:rdf="http://www.w3.org/1999/02/22-rdf-syntax-ns#"
   xmlns:svg="http://www.w3.org/2000/svg"
   xmlns="http://www.w3.org/2000/svg"
   xmlns:sodipodi="http://sodipodi.sourceforge.net/DTD/sodipodi-0.dtd"
   xmlns:inkscape="http://www.inkscape.org/namespaces/inkscape"
   inkscape:version="1.0 (4035a4fb49, 2020-05-01)"
   height="292.49179"
   width="491.97635"
   sodipodi:docname="arrow-up.svg"
   xml:space="preserve"
   viewBox="0 0 491.97635 292.49179"
   y="0px"
   x="0px"
   id="Layer_1"
   version="1.1"><metadata
   id="metadata43"><rdf:RDF><cc:Work
       rdf:about=""><dc:format>image/svg+xml</dc:format><dc:type
         rdf:resource="http://purl.org/dc/dcmitype/StillImage" /><dc:title></dc:title></cc:Work></rdf:RDF></metadata><defs
   id="defs41" /><sodipodi:namedview
   inkscape:current-layer="Layer_1"
   inkscape:window-maximized="1"
   inkscape:window-y="-8"
   inkscape:window-x="-8"
   inkscape:cy="159.5342"
   inkscape:cx="-51.113942"
   inkscape:zoom="0.61081875"
   showgrid="false"
   id="namedview39"
   inkscape:window-height="1017"
   inkscape:window-width="1920"
   inkscape:pageshadow="2"
   inkscape:pageopacity="0"
   guidetolerance="10"
   gridtolerance="10"
   objecttolerance="10"
   borderopacity="1"
   bordercolor="#666666"
   pagecolor="#ffffff" />
<g
   style="fill:#ff6600"
   transform="rotate(179.40563,245.72471,195.64243)"
   id="g6">
	<g
   style="fill:#ff6600"
   id="g4">
		<path
   style="fill:#ff6600"
   id="path2"
   d="m 484.132,124.986 -16.116,-16.228 c -5.072,-5.068 -11.82,-7.86 -19.032,-7.86 -7.208,0 -13.964,2.792 -19.036,7.86 L 246.108,292.606 62.056,108.554 c -5.064,-5.068 -11.82,-7.856 -19.028,-7.856 -7.208,0 -13.968,2.788 -19.036,7.856 l -16.12,16.128 c -10.496,10.488 -10.496,27.572 0,38.06 l 219.136,219.924 c 5.064,5.064 11.812,8.632 19.084,8.632 h 0.084 c 7.212,0 13.96,-3.572 19.024,-8.632 L 484.132,163.338 c 5.072,-5.064 7.856,-12.016 7.864,-19.224 0,-7.212 -2.792,-14.068 -7.864,-19.128 z" />
	</g>
</g>
<g
   transform="rotate(179.40563,245.72471,195.64243)"
   id="g8">
</g>
<g
   transform="rotate(179.40563,245.72471,195.64243)"
   id="g10">
</g>
<g
   transform="rotate(179.40563,245.72471,195.64243)"
   id="g12">
</g>
<g
   transform="rotate(179.40563,245.72471,195.64243)"
   id="g14">
</g>
<g
   transform="rotate(179.40563,245.72471,195.64243)"
   id="g16">
</g>
<g
   transform="rotate(179.40563,245.72471,195.64243)"
   id="g18">
</g>
<g
   transform="rotate(179.40563,245.72471,195.64243)"
   id="g20">
</g>
<g
   transform="rotate(179.40563,245.72471,195.64243)"
   id="g22">
</g>
<g
   transform="rotate(179.40563,245.72471,195.64243)"
   id="g24">
</g>
<g
   transform="rotate(179.40563,245.72471,195.64243)"
   id="g26">
</g>
<g
   transform="rotate(179.40563,245.72471,195.64243)"
   id="g28">
</g>
<g
   transform="rotate(179.40563,245.72471,195.64243)"
   id="g30">
</g>
<g
   transform="rotate(179.40563,245.72471,195.64243)"
   id="g32">
</g>
<g
   transform="rotate(179.40563,245.72471,195.64243)"
   id="g34">
</g>
<g
   transform="rotate(179.40563,245.72471,195.64243)"
   id="g36">
</g>
</svg>
