<?xml version="1.0" encoding="iso-8859-1"?>
<!-- Generator: Adobe Illustrator 18.1.1, SVG Export Plug-In . SVG Version: 6.00 Build 0)  -->
<svg version="1.1" id="Capa_1" xmlns="http://www.w3.org/2000/svg" xmlns:xlink="http://www.w3.org/1999/xlink" x="0px" y="0px"
	 viewBox="0 0 308.768 308.768" style="enable-background:new 0 0 308.768 308.768;" xml:space="preserve">
<g>
	<g>
		<path style="fill:#010002;" d="M154.378,0c-53.732,0-97.451,49.077-97.451,109.397c0,48.785,66.381,151.362,94.724,195.164
			c0.949,1.468,1.862,2.864,2.721,4.207c0.859-1.331,1.754-2.715,2.697-4.171c28.361-43.815,94.772-146.415,94.772-195.194
			C251.847,49.072,208.121,0,154.378,0z M154.378,145.198c-19.744,0-35.801-16.063-35.801-35.801s16.057-35.801,35.801-35.801
			s35.801,16.057,35.801,35.801C190.179,129.135,174.116,145.198,154.378,145.198z"/>
		<path style="fill:#010002;" d="M154.378,85.529c-13.163,0-23.867,10.705-23.867,23.867s10.705,23.867,23.867,23.867
			c13.163,0,23.867-10.705,23.867-23.867S167.541,85.529,154.378,85.529z"/>
	</g>
</g>
<g>
</g>
<g>
</g>
<g>
</g>
<g>
</g>
<g>
</g>
<g>
</g>
<g>
</g>
<g>
</g>
<g>
</g>
<g>
</g>
<g>
</g>
<g>
</g>
<g>
</g>
<g>
</g>
<g>
</g>
</svg>
