<?xml version="1.0" encoding="UTF-8" standalone="no"?>
<svg
   xmlns:dc="http://purl.org/dc/elements/1.1/"
   xmlns:cc="http://creativecommons.org/ns#"
   xmlns:rdf="http://www.w3.org/1999/02/22-rdf-syntax-ns#"
   xmlns:svg="http://www.w3.org/2000/svg"
   xmlns="http://www.w3.org/2000/svg"
   xmlns:sodipodi="http://sodipodi.sourceforge.net/DTD/sodipodi-0.dtd"
   xmlns:inkscape="http://www.inkscape.org/namespaces/inkscape"
   sodipodi:docname="mbari_cropped.svg"
   inkscape:version="1.0 (4035a4fb49, 2020-05-01)"
   version="1.1"
   id="svg2"
   height="85"
   width="85">
  <title
     id="title4300">MBARI Service Mark</title>
  <defs
     id="defs4">
    <clipPath
       clipPathUnits="userSpaceOnUse"
       id="clipPath3246">
      <path
         inkscape:connector-curvature="0"
         d="M 0,0 H 1242 V 792 H 0 Z"
         id="path3248" />
    </clipPath>
    <clipPath
       clipPathUnits="userSpaceOnUse"
       id="clipPath3232">
      <path
         inkscape:connector-curvature="0"
         d="m 140.924,309.156 h 146.33 v 109.748 h -146.33 z"
         id="path3234" />
    </clipPath>
    <clipPath
       clipPathUnits="userSpaceOnUse"
       id="clipPath3218">
      <path
         inkscape:connector-curvature="0"
         d="m 140.924,554.614 h 146.33 v 109.748 h -146.33 z"
         id="path3220" />
    </clipPath>
    <clipPath
       clipPathUnits="userSpaceOnUse"
       id="clipPath3204">
      <path
         inkscape:connector-curvature="0"
         d="m 140.924,431.886 h 146.33 v 109.747 h -146.33 z"
         id="path3206" />
    </clipPath>
    <clipPath
       clipPathUnits="userSpaceOnUse"
       id="clipPath3188">
      <path
         inkscape:connector-curvature="0"
         d="M 0,0 H 1242 V 792 H 0 Z"
         id="path3190" />
    </clipPath>
    <clipPath
       clipPathUnits="userSpaceOnUse"
       id="clipPath3096">
      <path
         inkscape:connector-curvature="0"
         d="M 152.648,160.929 H 277.9 v 77.357 H 152.648 Z"
         id="path3098" />
    </clipPath>
    <clipPath
       clipPathUnits="userSpaceOnUse"
       id="clipPath3070">
      <path
         inkscape:connector-curvature="0"
         d="M 0,792 V 0 h 413.986 c 7.432,23.993 26.157,94.936 26.157,200.571 v 0 c 0,167.143 -30.857,226.286 -30.857,360 v 0 c 0,128.979 26.175,204.307 37.816,231.429 v 0 z"
         id="path3072" />
    </clipPath>
    <clipPath
       clipPathUnits="userSpaceOnUse"
       id="clipPath3056">
      <path
         inkscape:connector-curvature="0"
         d="m 407,0 h 835 V 792 H 407 Z"
         id="path3058" />
    </clipPath>
  </defs>
  <sodipodi:namedview
     inkscape:document-rotation="0"
     inkscape:window-maximized="1"
     inkscape:window-y="-8"
     inkscape:window-x="1912"
     inkscape:window-height="1017"
     inkscape:window-width="1920"
     fit-margin-bottom="0"
     fit-margin-right="0"
     fit-margin-left="0"
     fit-margin-top="0"
     showgrid="false"
     inkscape:current-layer="layer1"
     inkscape:document-units="px"
     inkscape:cy="70.398036"
     inkscape:cx="110.37828"
     inkscape:zoom="2.2086957"
     inkscape:pageshadow="2"
     inkscape:pageopacity="0.0"
     borderopacity="1.0"
     bordercolor="#666666"
     pagecolor="#ffffff"
     id="base" />
  <metadata
     id="metadata7">
    <rdf:RDF>
      <cc:Work
         rdf:about="">
        <dc:format>image/svg+xml</dc:format>
        <dc:type
           rdf:resource="http://purl.org/dc/dcmitype/StillImage" />
        <dc:title>MBARI Service Mark</dc:title>
        <dc:date>2012-09-04</dc:date>
        <dc:creator>
          <cc:Agent>
            <dc:title>Monterey Bay Aquarium Research Institute (MBARI)</dc:title>
          </cc:Agent>
        </dc:creator>
        <dc:rights>
          <cc:Agent>
            <dc:title />
          </cc:Agent>
        </dc:rights>
        <dc:publisher>
          <cc:Agent>
            <dc:title>Monterey Bay Aquarium Research Institute (MBARI)</dc:title>
          </cc:Agent>
        </dc:publisher>
        <dc:source>MBARI Annual Report, 2011</dc:source>
      </cc:Work>
    </rdf:RDF>
  </metadata>
  <g
     transform="translate(-0.99967589,-900.76024)"
     id="layer1"
     inkscape:groupmode="layer"
     inkscape:label="Layer 1">
    <g
       style="fill:#316b9c;fill-opacity:1"
       transform="matrix(0.6786335,0,0,-0.61448928,-102.04566,1048.2324)"
       id="g3092">
      <g
         style="fill:#316b9c;fill-opacity:1"
         clip-path="url(#clipPath3096)"
         id="g3094">
        <g
           style="fill:#316b9c;fill-opacity:1"
           transform="translate(164.3703,238.2518)"
           id="g3100">
          <path
             id="path3102"
             style="fill:#316b9c;fill-opacity:1;fill-rule:nonzero;stroke:none"
             d="M 0,0 -1.491,-5.838 -2.981,0 h -1.615 l 0.032,-12.204 h 1.397 v 6.583 c 0,0 -0.031,0.59 0.186,-0.155 l 1.49,-6.148 v 0 0 h 0.001 v 0 L 0,-5.776 c 0.218,0.745 0.186,0.155 0.186,0.155 v -6.583 H 1.583 L 1.614,0 Z"
             inkscape:connector-curvature="0" />
        </g>
        <g
           style="fill:#316b9c;fill-opacity:1"
           transform="translate(191.1688,235.8648)"
           id="g3104">
          <path
             id="path3106"
             style="fill:#316b9c;fill-opacity:1;fill-rule:nonzero;stroke:none"
             d="M 0,0 V -2.07 L -1.251,-3.266 0,-4.555 v -3.123 c 0,-0.866 -0.48,-0.829 -0.48,-0.829 h -0.865 c -0.207,0 -0.207,0.17 -0.207,0.17 v 5.071 4.093 c 0,0.17 0.188,0.189 0.188,0.189 h 0.508 C 0.142,1.016 0,0 0,0 m 1.563,-2.216 v 3.057 c 0,1.58 -1.398,1.553 -1.398,1.553 H -2.863 L -2.874,2.41 V -9.793 h 3.038 c 0,0 1.399,-0.031 1.399,1.801 v 3.545 c 0,0 -0.118,1.033 -0.841,1.198 0.723,0.142 0.841,1.033 0.841,1.033"
             inkscape:connector-curvature="0" />
        </g>
        <g
           style="fill:#316b9c;fill-opacity:1"
           transform="translate(215.1666,226.0718)"
           id="g3108">
          <path
             id="path3110"
             style="fill:#316b9c;fill-opacity:1;fill-rule:nonzero;stroke:none"
             d="M 0,0 1.542,12.203 H 3.51 L 5.174,0 H 3.753 L 3.387,2.313 2.089,3.653 H 3.225 L 2.637,8.38 c 0,0 -0.082,0.305 -0.183,0 L 1.4,0 Z"
             inkscape:connector-curvature="0" />
        </g>
        <g
           style="fill:#316b9c;fill-opacity:1"
           transform="translate(242.9155,226.0718)"
           id="g3112">
          <path
             id="path3114"
             style="fill:#316b9c;fill-opacity:1;fill-rule:nonzero;stroke:none"
             d="m 0,0 v 12.203 h 3.298 c 0,0 1.147,-0.02 1.147,-1.613 V 7.385 c 0,0 0.15,-1.129 -1.111,-1.407 L 4.445,0 H 3.057 L 1.815,6.423 c 0,0 1.167,0.129 1.204,1.24 v 2.408 c 0,0 0.018,0.649 -0.649,0.687 H 1.63 c 0,0 -0.258,0.036 -0.242,-0.278 V 0 Z"
             inkscape:connector-curvature="0" />
        </g>
        <g
           style="fill:#316b9c;fill-opacity:1"
           transform="translate(271.0387,226.473)"
           id="g3116">
          <path
             id="path3118"
             style="fill:#316b9c;fill-opacity:1;fill-rule:nonzero;stroke:none"
             d="m 0,0 c 0,-0.388 -0.355,-0.482 -0.743,-0.482 -0.387,0 -0.665,0.094 -0.665,0.482 l -0.001,11.412 c 0,0.389 0.279,0.39 0.666,0.39 0.388,0 0.74,-0.038 0.74,-0.427 z"
             inkscape:connector-curvature="0" />
        </g>
        <g
           style="fill:#316b9c;fill-opacity:1"
           transform="translate(217.2443,195.689)"
           id="g3120">
          <path
             id="path3122"
             style="fill:#316b9c;fill-opacity:1;fill-rule:nonzero;stroke:none"
             d="m 0,0 -0.893,-0.371 c 0,0 2.539,-1.996 9.539,-1.386 0,0 5.286,0.464 7.696,1.713 0,0 0.494,0.232 0.669,0.407 0,0 0.067,0.033 0.071,0.15 0.004,0.117 0,0 0,0 0,0 0.071,0.049 -0.025,0.083 L 16.809,0.787 V 0.599 L 16.427,0.571 16.238,0.76 V 0.524 L 15.639,0.488 15.365,0.734 V 0.435 L 14.355,0.41 14.078,0.709 V 0.377 L 12.801,0.382 12.393,0.676 V 0.377 L 10.914,0.46 10.476,0.787 V 0.51 L 8.862,0.712 8.51,1.086 V 0.762 L 6.7,1.175 6.324,1.605 V 1.285 L 5.427,1.58 c 0,0 -0.187,0.117 -0.337,0 L 3.238,0.839 0.806,0.044 c 0,0 3.315,-1.333 7.422,-1.402 0,0 -4.935,-0.362 -8.228,1.358"
             inkscape:connector-curvature="0" />
        </g>
        <g
           style="fill:#316b9c;fill-opacity:1"
           transform="translate(224.1041,197.4542)"
           id="g3124">
          <path
             id="path3126"
             style="fill:#316b9c;fill-opacity:1;fill-rule:nonzero;stroke:none"
             d="m 0,0 0.607,-0.186 c 0,0 3.273,2.569 4.412,4.85 0,0 0.812,1.394 1.09,1.876 0,0 0.381,0.43 0.431,0.633 0,0 -0.759,-0.533 -1.14,-1.292 0,0 -1.622,-2.485 -2.256,-3.068 C 3.144,2.813 0.61,0.075 0,0"
             inkscape:connector-curvature="0" />
        </g>
        <g
           style="fill:#316b9c;fill-opacity:1"
           transform="translate(228.7692,204.7122)"
           id="g3128">
          <path
             id="path3130"
             style="fill:#316b9c;fill-opacity:1;fill-rule:nonzero;stroke:none"
             d="m 0,0 c -0.156,0 -0.286,0.079 -0.286,0.185 0,0.107 0.13,0.206 0.286,0.206 0.077,0 0.176,0 0.227,-0.035 C 0.282,0.322 0.295,0.255 0.295,0.199 0.295,0.094 0.157,0 0,0 M 2.003,1.309 H 1.471 c 0,0 -1.953,0.279 -2.156,0.102 0,0 -11.859,-2.417 -18.302,-8.855 0,0 -7.319,-6.437 -6.598,-12.931 0,0 -0.154,-4.021 3.711,-4.948 0,0 -3.195,2.526 -1.185,4.846 0,0 0.721,0.978 1.442,1.442 0,0 1.341,1.185 1.187,2.938 0,0 0.412,2.319 3.04,3.197 0,0 2.01,0.462 2.526,1.854 l 0.722,2.062 c 0,0 0.361,0.155 0.102,0.721 0,0 0.259,2.681 1.959,4.02 0,0 -1.03,-2.68 -1.082,-3.813 0,0 2.267,2.319 3.659,3.04 0,0 -2.993,-3.029 -3.119,-4.194 0,0 9.784,5.247 12.242,7.275 0,0 0.38,0.05 1.623,1.724 0,0 0.253,0.227 0.456,0.43 C 1.9,0.421 2.281,0.32 2.307,0.067 L 2.61,0.499 c 0,0 0.28,0.582 -0.607,0.81"
             inkscape:connector-curvature="0" />
        </g>
        <g
           style="fill:#316b9c;fill-opacity:1"
           transform="translate(202.6049,184.202)"
           id="g3132">
          <path
             id="path3134"
             style="fill:#316b9c;fill-opacity:1;fill-rule:nonzero;stroke:none"
             d="m 0,0 c 0,0 -2.786,4.359 3.698,13.067 0,0 3.519,5.527 8.168,4.181 0,0 -3.857,0.75 -7.556,-4.181 0,0 -2.72,-4.108 -3.27,-5.604 C 1.04,7.463 -1.101,3.027 0,0"
             inkscape:connector-curvature="0" />
        </g>
        <g
           style="fill:#316b9c;fill-opacity:1"
           transform="translate(206.1156,183.9608)"
           id="g3136">
          <path
             id="path3138"
             style="fill:#316b9c;fill-opacity:1;fill-rule:nonzero;stroke:none"
             d="m 0,0 0.273,0.51 c 0,0 1.774,0.853 4.98,3.446 0,0 5.321,4.333 10.097,3.513 0,0 -2.9,0.205 -6.004,-1.433 0,0 -3.99,-2.284 -5.321,-3.478 C 4.025,2.558 1.092,0.136 0,0"
             inkscape:connector-curvature="0" />
        </g>
        <g
           style="fill:#316b9c;fill-opacity:1"
           transform="translate(205.7553,183.2002)"
           id="g3140">
          <path
             id="path3142"
             style="fill:#316b9c;fill-opacity:1;fill-rule:nonzero;stroke:none"
             d="m 0,0 c 0,0 -0.815,-1.994 1.798,-3.765 0,0 1.686,-0.252 9.58,6.491 0,0 3.625,2.893 6.378,3.426 0,0 2.247,0.478 3.007,-0.758 0,0 0.504,1.461 -3.121,2.417 0,0 -2.865,0.448 -7.781,-1.883 0,0 -3.062,-1.63 -4.832,-3.006 0,0 -3.119,-2.333 -3.708,-2.586 C 1.321,0.336 1.18,0.112 0,0"
             inkscape:connector-curvature="0" />
        </g>
        <g
           style="fill:#316b9c;fill-opacity:1"
           transform="translate(222.555,188.791)"
           id="g3144">
          <path
             id="path3146"
             style="fill:#316b9c;fill-opacity:1;fill-rule:nonzero;stroke:none"
             d="m 0,0 0.48,0.169 c 0,0 0.111,-0.76 -1.041,-1.826 0,0 -1.933,-1.955 -4.211,-3.303 0,0 -6.016,-4.282 -6.437,-6.757 0,0 -0.281,1.322 1.714,3.231 l 4.61,3.806 c 0,0 4.38,3.023 4.885,4.68"
             inkscape:connector-curvature="0" />
        </g>
        <g
           style="fill:#316b9c;fill-opacity:1"
           transform="translate(223.7396,189.0128)"
           id="g3148">
          <path
             id="path3150"
             style="fill:#316b9c;fill-opacity:1;fill-rule:nonzero;stroke:none"
             d="m 0,0 c 0,0 1.944,0.47 2.659,-1.094 0,0 0.157,-1.611 -3.307,-3.935 0,0 -8.828,-5.876 -9.588,-6.771 0,0 -2.346,-2.233 -0.893,-3.641 0,0 -1.163,0.044 -1.453,1.408 0,0 -0.403,2.01 2.033,4.178 0,0 6.191,5.094 6.436,5.23 0,0 3.286,2.368 3.555,2.904 0,0 0.67,0.781 0.558,1.721"
             inkscape:connector-curvature="0" />
        </g>
        <g
           style="fill:#316b9c;fill-opacity:1"
           transform="translate(212.766,175.5804)"
           id="g3152">
          <path
             id="path3154"
             style="fill:#316b9c;fill-opacity:1;fill-rule:nonzero;stroke:none"
             d="m 0,0 -0.089,-0.313 c 0,0 1.779,0.313 3.276,1.654 0,0 2.334,1.876 3.048,2.145 0,0 1.307,0.613 2.089,0.432 0,0 -1.065,0.418 -2.2,-0.187 0,0 -2.816,-1.966 -3.129,-2.19 C 2.995,1.541 1.274,0.155 0,0"
             inkscape:connector-curvature="0" />
        </g>
        <g
           style="fill:#316b9c;fill-opacity:1"
           transform="translate(212.5132,174.8086)"
           id="g3156">
          <path
             id="path3158"
             style="fill:#316b9c;fill-opacity:1;fill-rule:nonzero;stroke:none"
             d="m 0,0 c 0,0 -0.11,-0.985 0.969,-1.313 0,0 1.157,0.031 2.485,1.234 0,0 2.501,2.252 4.221,3.252 0,0 1.673,1.046 2.892,0.406 0,0 0.204,0.61 -1.204,1.001 0,0 -1.188,0.141 -2.391,-0.533 0,0 -1.752,-1.108 -2.361,-1.61 C 4.611,2.437 2.376,0.359 1,0.156 1,0.156 0.406,-0.079 0,0"
             inkscape:connector-curvature="0" />
        </g>
        <g
           style="fill:#316b9c;fill-opacity:1"
           transform="translate(221.955,178.2311)"
           id="g3160">
          <path
             id="path3162"
             style="fill:#316b9c;fill-opacity:1;fill-rule:nonzero;stroke:none"
             d="m 0,0 h 0.202 c 0,0 0.094,-1.079 -0.797,-2.282 0,0 -1.938,-2.376 -2.875,-3.096 l -2.611,-2.328 c 0,0 2.579,2.015 2.829,2.203 0,0 3.705,2.561 3.752,5.515 0,0 0.499,-0.03 0.812,-0.436 0,0 0.222,-0.511 -0.199,-1.495 0,0 -0.207,-0.976 -2.287,-2.694 0,0 -8.157,-6.493 -12.013,-8.422 0,0 7.085,5.482 8.107,6.388 0,0 3.809,3.647 4.344,4.554 0,0 0.774,1.006 0.736,2.093"
             inkscape:connector-curvature="0" />
        </g>
        <g
           style="fill:#316b9c;fill-opacity:1"
           transform="translate(152.6483,210.462)"
           id="g3164">
          <path
             id="path3166"
             style="fill:#316b9c;fill-opacity:1;fill-rule:nonzero;stroke:none"
             d="m 0,0 c 0,0 5.81,2.545 11.62,-1.501 0,0 7.699,-5.627 14.099,-11.692 l 9.141,-8.677 c 0,0 4.308,1.438 9.596,-3.72 5.287,-5.157 14.492,-14.493 14.492,-14.493 l -1.958,-1.958 -16.125,15.994 c 0,0 -2.153,2.807 -6.267,0.457 l -12.405,12.397 c 0,0 -9.116,9.885 -13.963,11.837 0,0 -4.782,1.702 -8.23,1.356"
             inkscape:connector-curvature="0" />
        </g>
        <g
           style="fill:#316b9c;fill-opacity:1"
           transform="translate(212.7993,165.1355)"
           id="g3168">
          <path
             id="path3170"
             style="fill:#316b9c;fill-opacity:1;fill-rule:nonzero;stroke:none"
             d="M 0,0 2.103,2.101 4.289,-0.084 20.27,15.139 c 0,0 2.608,3.071 6.183,2.985 l 14.13,14.009 c 0,0 3.198,3.866 6.142,4.034 l 8.535,7.4 c 0,0 3.239,2.777 9.841,3.534 0,0 -4.794,-0.715 -10.01,-5.845 L 47.9,33.979 c 0,0 -0.209,-0.546 -0.966,-0.588 0,0 -1.854,-0.496 -2.567,-1.258 L 28.259,15.896 c 0,0 0.002,-0.295 -1.008,-0.295 0,0 -2.566,10e-4 -6.014,-3.28 L 4.163,-4.207 Z"
             inkscape:connector-curvature="0" />
        </g>
        <g
           style="fill:#316b9c;fill-opacity:1"
           transform="translate(238.3773,178.8286)"
           id="g3172">
          <path
             id="path3174"
             style="fill:#316b9c;fill-opacity:1;fill-rule:nonzero;stroke:none"
             d="M 0,0 V 0 C -0.007,0.093 -0.048,0.167 -0.123,0.221 -0.197,0.276 -0.295,0.303 -0.414,0.303 -0.519,0.303 -0.6,0.28 -0.658,0.235 -0.717,0.189 -0.746,0.125 -0.746,0.043 c 0,-0.058 0.03,-0.103 0.091,-0.135 0.061,-0.032 0.19,-0.07 0.386,-0.113 0.286,-0.064 0.476,-0.138 0.573,-0.221 0.096,-0.083 0.144,-0.216 0.144,-0.399 0,-0.184 -0.073,-0.33 -0.218,-0.438 -0.145,-0.108 -0.341,-0.162 -0.588,-0.162 -0.248,0 -0.442,0.058 -0.581,0.172 -0.14,0.115 -0.215,0.279 -0.224,0.49 h 0.395 c 0.004,-0.104 0.042,-0.184 0.113,-0.24 0.071,-0.056 0.171,-0.084 0.298,-0.084 0.131,0 0.233,0.021 0.306,0.063 0.073,0.042 0.11,0.101 0.11,0.175 0,0.074 -0.026,0.128 -0.079,0.163 -0.052,0.034 -0.162,0.07 -0.331,0.108 -0.312,0.069 -0.52,0.144 -0.625,0.225 -0.104,0.08 -0.156,0.204 -0.156,0.374 0,0.19 0.069,0.341 0.207,0.453 0.137,0.111 0.324,0.167 0.558,0.167 0.22,0 0.398,-0.058 0.536,-0.173 C 0.307,0.352 0.383,0.196 0.398,0 Z"
             inkscape:connector-curvature="0" />
        </g>
        <g
           style="fill:#316b9c;fill-opacity:1"
           transform="translate(239.4982,177.4567)"
           id="g3176">
          <path
             id="path3178"
             style="fill:#316b9c;fill-opacity:1;fill-rule:nonzero;stroke:none"
             d="m 0,0 h -0.19 -0.192 v 1.96 h 0.299 0.3 L 0.574,0.406 H 0.575 L 0.927,1.96 H 1.223 1.519 V 0 H 1.328 1.137 v 1.648 0 L 0.77,0 H 0.568 0.367 L 0,1.684 v 0 z"
             inkscape:connector-curvature="0" />
        </g>
      </g>
    </g>
  </g>
</svg>
