<?xml version="1.0" encoding="UTF-8" standalone="no"?>
<!-- Created with Inkscape (http://www.inkscape.org/) -->

<svg
   xmlns:dc="http://purl.org/dc/elements/1.1/"
   xmlns:cc="http://creativecommons.org/ns#"
   xmlns:rdf="http://www.w3.org/1999/02/22-rdf-syntax-ns#"
   xmlns:svg="http://www.w3.org/2000/svg"
   xmlns="http://www.w3.org/2000/svg"
   xmlns:sodipodi="http://sodipodi.sourceforge.net/DTD/sodipodi-0.dtd"
   xmlns:inkscape="http://www.inkscape.org/namespaces/inkscape"
   width="25.554779"
   height="25.501789"
   viewBox="0 0 25.554779 25.501789"
   id="svg10179"
   version="1.1"
   inkscape:version="0.91 r13725"
   sodipodi:docname="monterey bay aquarium.svg">
  <defs
     id="defs10181" />
  <sodipodi:namedview
     id="base"
     pagecolor="#ffffff"
     bordercolor="#666666"
     borderopacity="1.0"
     inkscape:pageopacity="0.0"
     inkscape:pageshadow="2"
     inkscape:zoom="21.54609"
     inkscape:cx="12.627391"
     inkscape:cy="12.600916"
     inkscape:document-units="px"
     inkscape:current-layer="layer1"
     showgrid="false"
     units="px"
     fit-margin-top="0"
     fit-margin-left="0"
     fit-margin-right="0"
     fit-margin-bottom="0"
     inkscape:window-width="1280"
     inkscape:window-height="744"
     inkscape:window-x="-4"
     inkscape:window-y="-4"
     inkscape:window-maximized="1" />
  <metadata
     id="metadata10184">
    <rdf:RDF>
      <cc:Work
         rdf:about="">
        <dc:format>image/svg+xml</dc:format>
        <dc:type
           rdf:resource="http://purl.org/dc/dcmitype/StillImage" />
        <dc:title></dc:title>
      </cc:Work>
    </rdf:RDF>
  </metadata>
  <g
     inkscape:label="Layer 1"
     inkscape:groupmode="layer"
     id="layer1"
     transform="translate(1195.4846,-759.46131)">
    <g
       id="g10445"
       transform="translate(-1199.8688,755.48133)">
      <path
         id="path10421"
         d="m 6.846,9.429 c 0,0 3.425,-6.176 12.193,-5.193 0,0 4.412,0.636 7.31,4.08 0,0 -2.524,1.14 -7.792,-0.537 0,-0.001 -6.494,-3.51 -11.711,1.65"
         inkscape:connector-curvature="0"
         style="fill:#1393cb" />
      <path
         id="path10423"
         d="m 29.008,20.304 c -0.435,1.257 -2.733,2.97 -3.712,3.318 -0.978,0.347 -1.962,1.505 -1.962,1.505 -0.016,-1.654 1.666,-3.663 3.795,-5.521 2.132,-1.859 2.349,-4.888 2.349,-4.888 0.749,2.025 -0.035,4.329 -0.47,5.586"
         inkscape:connector-curvature="0"
         style="fill:#1393cb" />
      <path
         id="path10425"
         d="m 25.627,25.002 c 0.109,-0.142 0.252,-1.311 0.252,-1.311 0.639,-0.107 1.933,-1.259 1.933,-1.259 -0.287,2.337 -2.185,2.57 -2.185,2.57"
         inkscape:connector-curvature="0"
         style="fill:#1393cb" />
      <path
         id="path10427"
         d="m 18.539,27.345 c -1.471,-0.462 -3.403,-0.479 -3.403,-0.479 2.087,-1.74 5.399,-1.552 7.763,-1.231 2.359,0.322 3.572,-0.653 3.572,-0.653 -1.882,3.387 -6.459,2.824 -7.932,2.363"
         inkscape:connector-curvature="0"
         style="fill:#1393cb" />
      <path
         id="path10429"
         d="m 16.797,28.597 c 0.432,0.022 1.421,-0.917 1.421,-0.917 0.439,0.241 2.755,0.432 2.755,0.432 -2.45,1.662 -4.176,0.485 -4.176,0.485"
         inkscape:connector-curvature="0"
         style="fill:#1393cb" />
      <path
         id="path10431"
         d="m 9.952,24.389 c -0.57,-1.068 -2.056,-2.312 -2.056,-2.312 4.147,0.26 6.03,3.984 7.324,5.64 1.119,1.434 2.157,1.481 2.157,1.481 -4.328,0.966 -6.765,-3.575 -7.425,-4.809"
         inkscape:connector-curvature="0"
         style="fill:#1393cb" />
      <path
         id="path10433"
         d="m 11.437,27.284 c -2.02,-0.062 -2.804,-2.309 -2.804,-2.309 0.04,0.192 1.359,0.103 1.359,0.103 0.494,0.812 1.445,2.206 1.445,2.206"
         inkscape:connector-curvature="0"
         style="fill:#1393cb" />
      <path
         id="path10435"
         d="m 4.716,19.036 c 0,0 2.178,0.798 2.905,3.756 0.729,2.96 1.26,3.461 1.348,3.504 0.001,0 -3.329,-1.844 -4.253,-7.26"
         inkscape:connector-curvature="0"
         style="fill:#1393cb" />
      <path
         id="path10437"
         d="m 9.711,19.495 c 1.406,0.235 2.164,1.668 2.164,1.668 l 0.15,0.05 c 0.184,-0.229 0.647,-0.701 1.205,-0.662 0.556,0.036 1.303,0.565 1.303,0.565 1.425,0.579 1.972,-0.569 1.972,-0.569 -1.142,-0.857 -2.439,-0.705 -2.439,-0.705 -2.05,0.184 -3.129,-0.166 -3.129,-0.166 C 9.784,19.41 9.796,18.287 9.796,18.287 L 9.592,18.17 c -1.376,0.298 -2.417,-0.64 -2.417,-0.64 0.301,1.128 1.131,1.729 2.536,1.965 M 8.464,16.69 c 1.135,0.67 1.37,1.291 1.37,1.291 l 0.119,0.046 c 0.203,-0.381 0.917,-0.355 0.917,-0.355 0.667,0.144 1.327,1.13 1.327,1.13 1.343,0.757 1.525,0.279 1.525,0.279 C 12.911,17.298 11.419,17.52 10.309,17.167 9.2,16.812 9.539,15.824 9.539,15.824 L 9.396,15.713 C 7.754,15.636 7.254,14.109 7.254,14.109 c -0.236,0.908 0.077,1.912 1.21,2.581 z m 0.591,-2.266 c 0.478,0.434 0.58,1.132 0.58,1.132 l 0.115,0.077 c 1.234,-0.161 1.595,0.975 1.595,0.975 0.701,0.647 1.218,0.493 1.218,0.493 C 12.399,16.145 11.085,15.423 10.527,15.135 9.97,14.848 10.168,14 10.168,14 10.224,13.789 9.979,13.758 9.979,13.758 8.743,13.418 8.617,11.905 8.617,11.905 7.777,12.896 8.578,13.99 9.055,14.424 Z m 1.206,-1.692 c 0.191,0.74 0.133,0.952 0.133,0.952 l 0.045,0.129 c 0.722,-0.036 0.774,0.563 0.774,0.563 0.175,0.866 1.064,1.223 1.064,1.223 0.184,-0.727 -0.335,-1.319 -0.852,-1.944 -0.517,-0.623 -0.007,-1.216 -0.007,-1.216 l -0.099,-0.2 c -0.865,-0.324 -0.998,-1.525 -0.998,-1.525 -0.55,0.681 -0.25,1.277 -0.06,2.018 z m 1.345,-1.3 c 0.184,0.521 -0.004,0.779 -0.004,0.779 l 0.078,0.134 c 0.552,0.067 0.619,0.794 0.619,0.794 -0.196,0.849 0.107,0.917 0.107,0.917 0.635,-0.856 -0.067,-2.254 -0.217,-2.552 -0.149,-0.3 -0.283,-1.251 -0.283,-1.251 -0.599,0.299 -0.3,1.179 -0.3,1.179 z m 1.464,0.772 c 0.404,-1.011 0.034,-2.054 0.034,-2.054 -0.903,0.762 -0.034,2.054 -0.034,2.054 z m 0.697,-1.1 0.623,-1.016 c -0.91,-0.203 -0.623,1.016 -0.623,1.016 z M 16.672,8.53 c -0.777,0.496 -2.253,2.342 -2.518,2.716 -0.265,0.374 -0.864,1.452 -1.005,1.841 -0.143,0.387 -0.305,1.21 -0.305,1.21 -0.209,0.691 -0.094,1.268 -0.094,1.268 -0.113,0.922 0.152,0.797 0.414,1.452 0.263,0.657 0.644,0.859 1.09,1.538 0.448,0.679 0.609,0.638 0.609,0.638 0.561,0.005 1.672,0.36 1.672,0.36 0.694,0.428 1.043,0.128 1.043,0.128 0.527,-0.217 1.511,-0.626 1.902,-0.765 0.393,-0.14 0.625,-0.516 0.625,-0.516 0.087,-0.458 0.738,-1.438 0.971,-1.814 0.233,-0.376 0.219,-0.504 0.129,-1.045 C 21.117,15.001 21.02,13.99 21.02,13.99 21.144,13.226 20.688,12.889 20.688,12.889 19.939,12.39 19.604,12.071 19.604,12.071 18.921,11.269 18.42,11.301 18.42,11.301 15.539,10.884 15.3,10.293 15.3,10.293 l 0.548,-0.648 c 0.733,0.621 2.055,0.782 2.055,0.782 2.703,0.582 4.255,-1.38 5.887,-1.461 1.629,-0.08 1.652,1.263 1.652,1.263 l 0.15,0.051 c 0.932,-0.479 2.846,0.441 3.409,2.446 0.565,2.002 -0.332,3.731 -0.332,3.731 -0.007,-1.465 -1.745,-2.804 -2.435,-3.792 -0.69,-0.988 -0.711,-2.083 -0.711,-2.083 l -0.12,-0.045 c -0.367,0.453 -0.386,1.106 -2.368,0.487 -1.982,-0.617 -3.016,0.191 -3.016,0.191 0.953,1.365 1.884,1.417 3.586,2.031 1.701,0.614 2.088,1.037 2.088,1.037 1.543,1.655 0.182,2.579 0.182,2.579 l 0.104,0.167 c 1.152,0.516 1.523,1.811 1.523,1.811 -0.439,0.538 -1.889,1.669 -1.889,1.669 -0.527,-2.062 0.127,-3.32 0.127,-3.32 l -0.134,-0.174 c -0.919,-0.142 -1.086,0.212 -1.651,-1.543 -0.564,-1.754 -1.979,-1.927 -1.979,-1.927 -0.191,1.317 -0.242,2.497 1.141,4.694 1.383,2.195 1.088,2.565 1.088,2.565 -0.107,1.39 -1.268,1.435 -1.268,1.435 l -0.012,0.093 c 0.659,1.234 -0.081,2.952 -0.081,2.952 -0.819,-0.195 -2.75,-0.213 -2.75,-0.213 0.729,-1.876 2.556,-2.773 2.556,-2.773 l -0.047,-0.13 c -0.76,-0.406 -0.879,-1.231 -0.584,-1.85 0.295,-0.62 0.305,-1.211 0.305,-1.211 C 22.244,17.476 21.58,17.3 21.58,17.3 c -1.162,1.074 -1.447,4.157 -1.447,4.157 -0.07,2.111 -0.769,2.462 -0.769,2.462 -0.74,0.689 -1.645,0.174 -1.645,0.174 l -0.11,0.142 c -1.06,1.772 -2.875,2.329 -2.875,2.329 -0.077,-0.135 -1.513,-2.15 -1.513,-2.15 0.88,-0.827 4.204,-0.451 4.204,-0.451 l 0.076,-0.115 c -0.383,-1.2 0.521,-1.713 0.521,-1.713 1.553,-0.714 1.543,-1.899 1.543,-1.899 0.125,-0.764 -0.04,-0.442 -0.91,-0.206 -0.871,0.236 -2.596,2.612 -4.487,2.756 C 12.28,22.928 11.979,21.704 11.979,21.704 11.874,21.412 11.678,21.48 11.678,21.48 10.799,21.794 9.79,21.624 9.79,21.624 7.071,20.916 4.71,18.801 4.542,15.6 4.375,12.399 6.953,9.675 6.953,9.675 11.413,4.983 17.57,7.798 17.57,7.798 L 16.672,8.53"
         inkscape:connector-curvature="0"
         style="fill:#1393cb" />
    </g>
  </g>
</svg>
