<?xml version="1.0" standalone="no"?>
<!DOCTYPE svg PUBLIC "-//W3C//DTD SVG 20010904//EN"
 "http://www.w3.org/TR/2001/REC-SVG-20010904/DTD/svg10.dtd">
<svg version="1.0" xmlns="http://www.w3.org/2000/svg"
 width="1280.000000pt" height="978.000000pt" viewBox="0 0 1280.000000 978.000000"
 preserveAspectRatio="xMidYMid meet">
<metadata>
Created by potrace 1.15, written by Peter Selinger 2001-2017
</metadata>
<g transform="translate(0.000000,978.000000) scale(0.100000,-0.100000)"
fill="#000000" stroke="none">
<path d="M4105 9150 c-116 -20 -458 -135 -575 -192 -115 -57 -133 -69 -221
-157 -135 -135 -276 -351 -314 -481 -36 -124 -24 -237 41 -412 26 -68 81 -151
108 -161 9 -4 70 39 164 116 l150 122 99 225 c92 207 102 226 133 240 27 12
62 58 178 234 79 121 188 275 243 342 54 68 99 125 99 129 0 7 -54 4 -105 -5z
m-365 -356 c0 -39 -153 -206 -233 -255 -38 -22 -67 -25 -67 -5 0 23 87 131
158 197 88 81 142 105 142 63z m-430 -501 c0 -51 -55 -205 -92 -255 -33 -47
-43 -23 -28 68 16 100 35 152 67 186 34 36 53 36 53 1z"/>
<path d="M4135 9034 c-91 -112 -196 -258 -225 -314 l-13 -25 29 26 c36 33 67
49 93 49 32 0 25 -26 -19 -74 -49 -53 -106 -83 -129 -69 -13 8 -27 -7 -79 -83
-43 -65 -70 -96 -87 -100 -31 -8 -34 -14 -145 -264 l-87 -195 -137 -114 c-75
-63 -134 -116 -132 -119 3 -2 28 1 57 8 92 22 211 113 330 251 150 175 294
301 392 341 18 8 21 5 31 -43 5 -21 14 -28 40 -33 31 -6 42 -1 107 49 72 56
201 125 233 125 20 0 119 61 158 97 l27 26 -23 36 c-20 32 -29 37 -72 41 l-49
5 -3 48 c-3 42 -1 47 17 47 25 0 26 9 5 54 -12 24 -25 36 -46 40 -26 5 -37 21
-102 157 l-73 152 -98 -119z m124 -358 c9 -11 5 -19 -20 -40 -103 -87 -289
-129 -262 -59 8 20 83 61 161 89 77 27 105 30 121 10z"/>
<path d="M7115 9071 c-141 -37 -152 -39 -385 -51 -107 -6 -323 -26 -480 -46
-736 -90 -853 -105 -926 -124 -97 -24 -310 -127 -424 -205 -72 -49 -99 -61
-185 -82 -88 -22 -145 -46 -270 -116 -16 -9 -49 -22 -72 -27 l-42 -10 -3 -216
-3 -216 -26 -22 c-36 -31 -89 -31 -207 -2 -54 13 -146 34 -207 46 -60 12 -139
28 -175 36 -63 13 -66 13 -82 -7 -32 -38 -20 -47 79 -56 35 -3 63 -7 63 -9 0
-19 -125 -197 -161 -231 -29 -27 -90 -53 -122 -53 -13 0 -26 -3 -30 -6 -3 -4
22 -38 56 -76 l62 -70 70 6 c105 10 123 40 76 129 l-30 56 49 74 c57 89 107
130 147 124 26 -4 26 -4 3 -6 -26 -1 -109 -65 -99 -75 3 -3 38 -9 79 -12 64
-6 75 -5 86 11 8 11 14 29 14 41 0 21 3 22 33 13 51 -15 308 -59 343 -59 l32
0 -5 -47 c-6 -52 -23 -84 -23 -42 0 14 -6 32 -13 41 -12 16 -180 53 -287 65
-52 5 -59 3 -69 -16 -11 -19 -20 -21 -114 -21 l-102 0 -28 -45 -29 -45 31 -57
c28 -51 30 -61 20 -90 -14 -44 -34 -53 -118 -53 -61 0 -71 -2 -71 -17 0 -22
54 -138 68 -147 6 -3 52 -2 103 4 82 9 101 8 170 -10 43 -11 87 -20 97 -20 10
0 33 -11 52 -25 24 -18 47 -25 78 -25 57 0 78 12 103 63 12 23 41 63 65 89 24
26 44 53 44 60 0 10 26 12 116 9 106 -3 119 -1 145 18 19 14 43 21 72 21 84 0
97 -27 171 -362 38 -169 60 -233 76 -223 6 4 10 -5 10 -22 1 -15 21 -149 45
-298 l43 -270 -46 -79 c-51 -86 -120 -167 -185 -218 l-42 -33 33 42 c18 23 29
44 25 46 -5 3 -107 26 -228 53 -121 26 -222 48 -223 50 -2 1 19 40 47 85 64
104 67 142 17 187 -38 33 -49 36 -240 57 -152 17 -308 50 -343 72 -12 8 -32
42 -45 76 -31 79 -68 107 -145 107 -67 0 -106 -19 -127 -64 -29 -61 -21 -114
24 -174 33 -43 39 -58 33 -80 -3 -15 -7 -127 -7 -249 l-1 -222 -33 -31 c-50
-45 -39 -55 65 -58 73 -2 92 0 104 14 10 12 13 70 14 263 l0 248 80 -53 c44
-29 106 -60 138 -69 64 -18 71 -33 30 -63 -27 -20 -28 -24 -29 -119 -2 -148
-9 -175 -60 -232 -47 -52 -101 -80 -206 -107 -117 -30 -300 -1 -455 71 -90 42
-93 45 -116 97 -32 72 -48 83 -121 83 -70 0 -110 -20 -151 -75 -33 -45 -32
-62 12 -148 l37 -72 -34 -103 c-35 -102 -35 -103 -35 -284 l0 -182 -40 -36
c-38 -35 -39 -38 -20 -51 22 -16 161 -19 185 -4 12 8 15 45 15 232 0 206 2
226 20 257 36 62 87 57 208 -21 l47 -30 0 -113 c0 -91 4 -122 19 -157 35 -77
32 -77 109 -3 l71 68 -6 66 -5 66 64 68 63 68 135 33 c150 38 233 71 290 116
43 34 101 116 121 174 8 21 27 49 42 62 36 30 79 31 238 4 169 -27 281 -35
308 -20 44 23 29 4 -57 -73 -54 -48 -171 -132 -307 -219 -261 -167 -392 -257
-422 -289 l-21 -24 38 -77 c20 -42 59 -106 86 -142 74 -102 60 -105 492 124
l357 191 335 260 c184 143 346 270 359 283 l23 24 6 605 c5 555 4 608 -12 631
-14 22 -14 26 -2 26 23 0 30 -19 36 -95 l5 -70 40 -6 40 -6 -42 -2 -43 -1 0
-229 c0 -132 4 -232 9 -236 5 -3 21 10 36 29 22 29 74 75 288 256 5 4 -12 50
-36 103 l-45 95 -63 -4 c-35 -2 -57 -1 -49 1 26 7 561 66 571 63 5 -2 -48 -41
-117 -88 -134 -89 -259 -180 -307 -223 -22 -20 -27 -31 -22 -49 7 -22 6 -22
-7 -5 -13 18 -23 11 -139 -101 l-124 -119 -6 -284 c-4 -156 -7 -291 -8 -300
-1 -9 -38 -44 -83 -79 -288 -222 -378 -294 -378 -302 0 -7 27 -8 75 -3 41 4
75 5 75 2 0 -2 96 -251 214 -554 210 -538 218 -556 368 -838 l153 -288 130 6
c112 5 143 10 220 38 99 34 165 65 165 77 0 4 -29 100 -64 213 -47 148 -69
240 -81 325 -44 331 -95 484 -285 865 -50 98 -99 202 -110 231 l-20 52 38 39
c20 22 90 86 154 143 103 91 136 113 260 176 110 56 151 72 178 70 28 -3 47 6
95 41 38 28 91 54 145 72 47 16 200 86 340 157 261 133 320 160 320 152 0 -7
-640 -324 -655 -324 -16 0 -40 -71 -51 -155 -1 -11 -16 -69 -32 -130 -58 -210
-123 -477 -119 -482 4 -3 680 -83 709 -83 4 0 46 57 94 128 96 140 176 246
209 277 11 11 31 49 44 85 33 93 38 102 207 342 85 119 159 228 166 243 12 26
10 30 -27 62 -51 44 -108 70 -176 82 -48 8 -50 9 -17 10 58 2 138 -34 207 -93
86 -73 160 -116 234 -137 34 -10 52 -18 39 -18 -12 -1 -50 8 -84 20 -73 24
-78 21 -78 -68 0 -52 -18 -114 -119 -410 -66 -191 -124 -362 -131 -380 -9 -24
-20 -33 -48 -40 -33 -8 -37 -13 -43 -48 -4 -25 -15 -45 -33 -58 -14 -10 -26
-25 -26 -33 0 -17 -1 -17 -110 -5 -47 6 -137 15 -200 21 -63 6 -160 15 -215
20 -55 5 -194 19 -310 30 -115 11 -255 25 -310 30 -55 5 -152 14 -215 20 -63
6 -157 15 -208 21 -51 5 -97 7 -103 4 -7 -5 59 -149 89 -193 6 -8 98 -20 288
-37 535 -47 1218 -105 1241 -105 52 0 45 -29 -94 -400 -58 -158 -91 -231 -108
-245 -40 -34 -117 -245 -103 -286 7 -20 -18 -103 -126 -420 -74 -217 -175
-511 -226 -654 -51 -143 -97 -278 -104 -300 -6 -23 -46 -107 -89 -188 l-78
-147 -92 62 c-51 33 -96 64 -100 68 -5 4 39 14 98 21 95 11 113 16 149 43 22
18 53 55 68 83 l28 50 -49 179 c-26 99 -52 194 -55 211 -10 43 -20 41 -50 -6
-14 -22 -30 -43 -37 -47 -6 -4 -2 6 10 22 l22 30 -30 99 c-31 103 -35 142 -7
59 9 -26 26 -58 38 -71 20 -21 30 -23 123 -23 l101 0 13 51 13 51 36 -7 c24
-4 38 -2 43 7 14 21 11 26 -26 38 -19 6 -35 15 -35 18 0 6 70 227 85 269 3 8
14 8 45 1 34 -9 44 -8 51 3 16 26 9 36 -31 48 -22 6 -40 17 -40 24 0 7 9 41
20 75 11 35 20 82 20 103 0 26 5 42 15 45 8 3 17 22 20 42 4 21 15 60 26 87
27 72 33 124 19 175 -12 43 -19 51 -126 151 -39 36 -72 25 -150 -49 -80 -75
-86 -84 -104 -162 -7 -30 -19 -62 -26 -71 -8 -9 -17 -38 -19 -65 -4 -34 -12
-54 -26 -64 -14 -11 -39 -78 -85 -225 -65 -212 -66 -213 -48 -305 3 -14 -27
72 -66 190 -99 300 -86 273 -124 253 -70 -37 -222 -74 -349 -85 -110 -10 -127
-13 -121 -27 3 -9 33 -97 66 -196 70 -211 86 -318 49 -330 -11 -3 -21 -13 -21
-21 0 -8 -4 -12 -10 -9 -5 3 -37 3 -69 -1 l-60 -6 -15 -45 c-9 -27 -13 -61
-10 -86 5 -36 2 -45 -20 -66 l-26 -24 0 35 c0 19 -2 37 -5 40 -4 3 -32 -2 -63
-11 l-57 -17 0 -42 c0 -41 -1 -41 -53 -61 -42 -15 -52 -16 -48 -5 12 30 -99 5
-128 -29 -16 -19 -86 -47 -119 -47 -2 0 -4 38 -5 84 -2 150 -57 405 -123 573
-95 241 -269 500 -451 669 -79 74 -210 172 -302 227 l-68 41 -19 -25 c-10 -13
-28 -46 -41 -73 -22 -48 -22 -49 -4 -60 79 -45 228 -152 289 -206 329 -294
508 -663 558 -1150 5 -57 12 -106 13 -108 2 -2 32 4 66 13 34 9 64 14 67 12 2
-3 -9 -8 -24 -11 -15 -4 -62 -16 -105 -27 -76 -21 -76 -21 -96 -67 -56 -132
-39 -176 96 -257 96 -57 183 -84 280 -85 20 0 31 -4 27 -10 -3 -5 -15 -10 -26
-10 -10 0 -19 -4 -19 -9 0 -8 331 -101 361 -101 10 0 20 15 27 39 11 34 17 40
48 46 31 5 54 -2 150 -46 62 -29 110 -57 107 -62 -4 -6 -1 -7 6 -2 15 9 93
-24 85 -36 -3 -5 1 -6 9 -4 24 10 164 -64 191 -100 15 -19 26 -37 26 -41 0 -4
-11 7 -24 24 l-23 32 -619 3 -619 2 -33 -52 c-19 -29 -36 -53 -39 -53 -3 0 5
15 16 33 63 94 168 337 156 357 -8 12 -120 80 -133 80 -6 0 -20 -30 -33 -68
-22 -68 -115 -262 -125 -262 -3 0 -2 5 2 12 4 7 3 8 -5 4 -6 -4 -9 -12 -6 -17
6 -8 -50 -99 -61 -99 -3 0 10 21 27 48 20 28 25 40 12 29 -18 -16 -102 -17
-1441 -17 -881 0 -1422 -4 -1422 -9 0 -6 50 -63 112 -128 90 -94 95 -102 29
-38 -215 207 -356 453 -417 727 -24 105 -25 126 -22 323 4 189 7 220 32 312
82 308 246 565 491 771 212 178 432 288 727 364 115 29 138 31 340 35 298 7
468 -18 468 -67 0 -25 4 -27 91 -35 l75 -7 82 185 c45 102 82 190 82 195 0 6
-17 12 -37 14 -35 3 -38 6 -41 36 -2 23 -8 32 -21 32 -32 0 -52 -36 -68 -121
-8 -46 -17 -90 -19 -97 -7 -26 -50 -31 -120 -15 -128 28 -174 28 -235 -1 -65
-31 -52 -22 61 45 120 70 250 168 289 217 l33 42 -39 0 c-25 0 -42 6 -50 18
-6 9 -43 64 -82 120 -38 57 -73 117 -76 133 -4 16 -10 31 -14 34 -5 2 -64 -13
-132 -35 -132 -42 -206 -51 -215 -25 -4 9 -19 15 -39 15 -40 0 -119 -60 -168
-128 -47 -64 -89 -163 -85 -198 3 -27 7 -30 60 -38 51 -7 57 -11 60 -35 2 -22
11 -29 52 -42 43 -13 62 -30 65 -59 1 -3 -41 -6 -92 -6 -259 -4 -649 -135
-902 -302 -406 -270 -665 -642 -757 -1090 -31 -153 -31 -430 0 -584 28 -134
69 -255 132 -382 27 -54 47 -103 43 -109 -4 -6 -1 -7 7 -2 10 6 12 4 7 -7 -3
-9 1 -24 9 -35 14 -17 14 -16 4 7 l-11 25 18 -25 c10 -14 46 -62 80 -108 34
-46 58 -80 52 -76 -6 3 -36 41 -67 83 l-57 76 -892 -5 -893 -5 -3 230 c-1 127
-4 -83 -5 -465 -2 -457 -8 -788 -17 -965 -24 -430 -30 -700 -16 -779 29 -163
99 -219 302 -239 84 -8 214 -7 581 8 543 21 377 21 6238 5 2065 -6 3904 -15
4085 -20 182 -6 501 -20 710 -31 492 -27 606 -18 694 57 92 79 109 206 86 644
-9 168 -21 397 -26 510 -6 113 -14 455 -18 760 -5 357 -9 484 -11 355 -2 -110
-5 -170 -7 -132 l-4 67 -815 0 -816 0 6 32 c5 29 5 30 -4 8 -5 -14 -14 -45
-20 -69 -6 -23 -13 -41 -15 -39 -2 2 2 28 10 58 55 204 69 429 40 651 -23 175
-76 331 -186 552 -163 325 -443 625 -733 786 -199 110 -439 204 -618 241 -262
54 -593 53 -803 -1 -44 -11 -100 -24 -125 -29 -25 -5 -53 -12 -62 -15 -16 -6
-18 0 -18 64 0 59 -3 73 -17 78 -10 4 -57 32 -104 64 -76 51 -87 62 -93 94 -8
38 -2 55 18 55 37 0 63 81 30 94 -31 12 -70 -7 -115 -57 l-45 -51 -26 35 c-37
48 -200 304 -231 364 -35 65 -34 97 4 157 29 45 34 48 74 48 47 0 59 13 50 56
-3 13 -7 35 -10 49 -5 21 -11 25 -40 25 -23 0 -35 5 -35 14 0 7 42 130 94 272
51 143 106 298 122 347 l28 87 46 0 c25 0 52 5 60 10 13 8 12 11 -4 23 -25 18
-12 37 26 37 30 0 30 0 26 51 l-3 51 35 -5 c290 -42 351 -36 518 48 141 71
268 148 305 182 33 32 36 77 7 93 -11 6 -46 14 -78 19 -62 9 -57 14 31 31 59
12 72 24 37 35 -11 3 -149 -4 -307 -16 -423 -32 -533 -31 -788 10 -170 28
-217 32 -248 24 -56 -15 -34 -1 58 37 44 18 158 66 254 106 96 41 176 72 178
70 2 -1 -87 -42 -197 -91 -110 -48 -203 -91 -205 -95 -7 -11 212 -43 227 -34
23 14 313 248 320 258 14 20 8 27 -11 16 -11 -5 -23 -10 -28 -10 -4 0 21 16
57 35 36 20 77 48 93 63 84 84 102 431 36 712 -39 169 -141 331 -290 460 -41
36 -105 97 -144 136 -78 80 -127 115 -232 168 -40 20 -73 41 -73 46 0 5 14 25
31 45 l31 35 -27 36 c-21 27 -62 52 -182 110 -265 128 -305 141 -478 149 -111
5 -128 3 -230 -24z m-1691 -1815 c-56 -18 -128 -48 -160 -66 -33 -18 -54 -27
-47 -19 18 22 138 81 206 100 107 30 107 19 1 -15z m-224 -100 c0 -3 -15 -14
-32 -26 l-33 -22 30 26 c31 27 35 29 35 22z m-70 -50 c0 -2 -8 -10 -17 -17
-16 -13 -17 -12 -4 4 13 16 21 21 21 13z m3340 -31 c-14 -8 -29 -14 -35 -14
-5 0 1 6 15 14 14 8 30 14 35 14 6 0 -1 -6 -15 -14z m-695 -311 c-11 -9 -45
-28 -75 -43 l-55 -26 75 -6 75 -5 -100 -2 -100 -1 95 48 c106 54 114 57 85 35z
m-1715 -218 c79 -84 210 -183 326 -244 55 -30 111 -63 124 -74 42 -33 -170 82
-250 136 -87 60 -277 239 -303 288 -18 31 -17 31 15 -7 18 -22 58 -66 88 -99z
m1455 94 c-3 -5 -12 -10 -18 -10 -7 0 -6 4 3 10 19 12 23 12 15 0z m868 -217
c-7 -2 -19 -2 -25 0 -7 3 -2 5 12 5 14 0 19 -2 13 -5z m-316 -1652 c135 -278
318 -684 439 -974 42 -100 124 -283 182 -407 57 -124 117 -253 133 -287 l28
-63 -29 0 c-25 0 -30 4 -30 24 0 13 -22 51 -51 87 -61 77 -71 93 -64 111 3 8
-5 24 -19 37 l-24 23 -132 -116 c-73 -64 -137 -116 -143 -116 -6 0 0 8 13 17
28 19 87 70 173 151 l58 54 -63 62 c-87 84 -208 232 -303 370 -43 64 -83 116
-88 116 -4 0 -34 -21 -65 -46 -65 -53 -73 -57 -165 -74 -67 -12 -68 -13 -112
-75 -25 -34 -45 -67 -45 -74 0 -6 36 -66 79 -135 108 -168 131 -214 131 -258
0 -20 7 -44 16 -52 13 -14 14 -16 0 -16 -8 0 -29 -20 -47 -45 l-32 -45 -206
-2 -206 -3 0 -35 0 -35 178 -3 178 -2 -56 -65 c-63 -71 -200 -178 -282 -219
-65 -32 -70 -51 -10 -42 75 11 341 36 372 35 27 -1 -205 -37 -347 -54 l-58 -6
0 -55 0 -54 43 -1 c23 0 123 -4 221 -8 162 -7 186 -6 240 11 65 20 520 144
721 197 264 69 245 62 245 87 0 16 -10 28 -30 39 -36 18 -76 19 -160 0 -88
-19 -107 -18 -40 3 58 19 67 32 69 100 l1 33 55 -3 55 -3 91 -194 c63 -136 87
-196 79 -201 -7 -4 -58 -11 -114 -14 -55 -4 -139 -11 -186 -16 -94 -11 -660
-64 -840 -80 -109 -10 -416 -30 -451 -30 -9 0 -16 6 -16 12 1 7 -2 63 -6 123
-10 132 5 357 34 497 22 109 78 273 114 333 13 22 37 67 54 100 79 158 179
279 370 445 111 97 252 198 295 213 7 2 -4 36 -29 85 -21 45 -40 82 -42 82
-15 0 -148 -77 -188 -109 l-50 -40 -62 107 c-35 59 -93 167 -128 240 -36 73
-69 131 -73 128 -15 -9 -54 -155 -47 -175 7 -23 -71 -277 -93 -303 -8 -10 -26
-18 -40 -18 -30 0 -22 12 9 14 19 1 28 17 61 116 21 63 43 147 48 185 9 68
131 479 161 540 11 22 23 31 49 36 19 3 39 3 44 1 5 -3 65 -120 133 -261z
m-4477 -12 c45 -17 79 -33 77 -35 -3 -4 -158 53 -166 62 -9 9 10 3 89 -27z
m4911 -343 c-9 -11 -3 -27 29 -77 22 -34 42 -64 44 -66 2 -2 19 5 37 16 123
73 549 129 769 102 298 -37 653 -193 925 -406 312 -245 527 -592 612 -985 28
-131 25 -477 -5 -617 -24 -109 -46 -178 -37 -113 3 19 2 29 -1 23 -4 -10 -171
-13 -784 -13 -693 0 -779 -2 -791 -16 -7 -8 -26 -22 -43 -30 -17 -8 -22 -9
-11 -2 11 7 40 33 64 58 25 25 36 35 26 23 -25 -32 -14 -29 16 4 13 14 18 23
12 19 -22 -12 -14 9 11 33 14 13 29 20 36 16 6 -3 9 -3 8 2 -2 9 72 83 122
121 39 30 60 102 60 207 0 71 -4 90 -31 143 -32 65 -67 100 -132 134 -81 41
-205 8 -297 -78 -28 -26 -52 -45 -54 -43 -11 12 -86 170 -78 165 5 -3 15 -19
22 -36 12 -28 16 -30 64 -30 56 0 156 44 156 68 0 8 -8 26 -19 40 -10 15 -123
203 -251 417 -129 215 -274 455 -322 534 -84 136 -88 145 -72 162 16 18 16 20
-9 43 -15 14 -27 29 -27 34 0 6 -21 38 -46 72 -25 34 -44 63 -42 64 6 6 43 25
47 26 2 0 -2 -6 -8 -14z m32 -378 c30 -51 179 -293 331 -538 l277 -445 -73 -3
c-53 -2 -74 1 -77 10 -2 7 -85 175 -184 373 -221 442 -348 707 -338 701 5 -3
33 -47 64 -98z m-927 -171 l41 -45 -107 -158 c-104 -157 -107 -162 -182 -374
-42 -118 -80 -225 -83 -237 -5 -18 -14 -23 -42 -23 -29 0 -34 3 -30 18 3 9 25
82 50 162 60 194 224 738 232 772 l7 27 37 -48 c20 -27 55 -69 77 -94z m-907
-347 c0 -9 -4 -8 -9 5 -5 11 -9 27 -9 35 0 9 4 8 9 -5 5 -11 9 -27 9 -35z
m-560 -200 c3 0 20 -12 36 -26 l30 -26 -35 23 c-39 25 -60 48 -59 63 0 6 5 1
11 -11 6 -13 14 -23 17 -23z m96 -70 c10 -11 16 -20 13 -20 -3 0 -13 9 -23 20
-10 11 -16 20 -13 20 3 0 13 -9 23 -20z m125 -107 c0 -7 -75 54 -91 74 -8 10
10 -2 39 -26 28 -24 52 -46 52 -48z m329 45 c-39 -52 -55 -69 -44 -48 13 23
66 90 72 90 2 0 -10 -19 -28 -42z m-92 -74 c-3 -3 -12 -4 -19 -1 -8 3 -5 6 6
6 11 1 17 -2 13 -5z m1490 0 c-3 -3 -12 -4 -19 -1 -8 3 -5 6 6 6 11 1 17 -2
13 -5z m40 -10 c-3 -3 -12 -4 -19 -1 -8 3 -5 6 6 6 11 1 17 -2 13 -5z m-1604
-11 c-7 -2 -19 -2 -25 0 -7 3 -2 5 12 5 14 0 19 -2 13 -5z m1784 -19 c-3 -3
-12 -4 -19 -1 -8 3 -5 6 6 6 11 1 17 -2 13 -5z m-1086 -114 c45 0 43 11 29
-160 -11 -129 4 -360 23 -372 21 -13 -19 -9 -118 13 -91 19 -165 44 -165 54 0
3 22 58 49 123 28 64 64 169 81 232 31 116 52 160 58 127 3 -12 14 -17 43 -17z
m1424 -155 c-18 -7 -356 -73 -509 -100 -268 -46 -175 -21 151 42 276 52 394
72 358 58z m-2225 -116 c-35 -14 -35 -13 -3 -70 26 -48 35 -55 118 -96 50 -24
85 -42 78 -41 -27 7 -423 173 -423 178 0 4 51 13 113 22 137 19 149 19 117 7z
m1533 -16 c-7 -2 -21 -2 -30 0 -10 3 -4 5 12 5 17 0 24 -2 18 -5z m-1878 -34
c-49 -10 -99 -18 -110 -17 -28 1 144 36 175 36 14 0 -15 -8 -65 -19z m-155
-29 c-14 -4 -36 -8 -50 -8 -22 0 -22 1 5 8 17 4 39 8 50 8 16 0 15 -2 -5 -8z
m-87 -17 c-7 -2 -19 -2 -25 0 -7 3 -2 5 12 5 14 0 19 -2 13 -5z m-50 -10 c-7
-2 -19 -2 -25 0 -7 3 -2 5 12 5 14 0 19 -2 13 -5z m-56 -9 c-3 -3 -12 -4 -19
-1 -8 3 -5 6 6 6 11 1 17 -2 13 -5z m-50 -10 c-3 -3 -12 -4 -19 -1 -8 3 -5 6
6 6 11 1 17 -2 13 -5z m-50 -10 c-3 -3 -12 -4 -19 -1 -8 3 -5 6 6 6 11 1 17
-2 13 -5z m1033 -84 c8 -5 11 -10 5 -10 -5 0 -17 5 -25 10 -8 5 -10 10 -5 10
6 0 17 -5 25 -10z m120 -50 c8 -5 11 -10 5 -10 -5 0 -17 5 -25 10 -8 5 -10 10
-5 10 6 0 17 -5 25 -10z m2418 -5 c-41 -23 -137 -45 -193 -45 -58 0 -70 -6
-79 -40 -5 -15 -4 -20 1 -13 6 9 15 -3 27 -38 10 -27 16 -52 13 -55 -3 -3 -8
8 -12 25 l-6 30 -652 3 c-753 3 -791 3 -783 -19 3 -8 8 -27 11 -41 3 -15 -2
-8 -11 15 -8 23 -23 44 -32 46 -9 3 7 5 36 6 30 0 106 5 170 10 64 6 187 15
272 21 85 6 198 15 250 20 97 10 225 22 410 39 58 6 170 15 250 22 80 6 177
15 215 19 39 4 86 8 105 8 l35 1 -27 -14z m-2368 -15 c8 -5 11 -10 5 -10 -5 0
-17 5 -25 10 -8 5 -10 10 -5 10 6 0 17 -5 25 -10z m50 -20 c8 -5 11 -10 5 -10
-5 0 -17 5 -25 10 -8 5 -10 10 -5 10 6 0 17 -5 25 -10z m27 -72 c-3 -7 -5 -2
-5 12 0 14 2 19 5 13 2 -7 2 -19 0 -25z m-10 -50 c-3 -7 -5 -2 -5 12 0 14 2
19 5 13 2 -7 2 -19 0 -25z m521 15 c-10 -2 -26 -2 -35 0 -10 3 -2 5 17 5 19 0
27 -2 18 -5z m-111 -10 c-13 -3 -16 -10 -11 -26 12 -39 10 -43 -4 -10 -8 18
-22 34 -31 36 -9 3 2 5 24 5 22 0 32 -2 22 -5z m-159 -16 c-76 -7 -98 -13
-101 -26 -3 -11 -5 -9 -6 6 -1 20 5 22 52 26 109 7 148 4 55 -6z m-261 -29
c-3 -8 -6 -5 -6 6 -1 11 2 17 5 13 3 -3 4 -12 1 -19z m3973 -33 c-16 -47 -23
-40 -8 8 6 20 13 35 16 33 2 -3 -1 -21 -8 -41z m-5860 22 c0 -2 -10 -12 -22
-23 l-23 -19 19 23 c18 21 26 27 26 19z m1597 -3 c-3 -3 -12 -4 -19 -1 -8 3
-5 6 6 6 11 1 17 -2 13 -5z m2686 -43 c27 -46 14 -38 -18 12 -16 23 -22 37
-14 30 8 -6 22 -25 32 -42z m-2659 24 c-4 -8 -8 -15 -10 -15 -2 0 -4 7 -4 15
0 8 4 15 10 15 5 0 7 -7 4 -15z m2409 8 c-7 -2 -21 -2 -30 0 -10 3 -4 5 12 5
17 0 24 -2 18 -5z m2007 -30 c-11 -17 -11 -17 -6 0 3 10 6 24 7 30 0 9 2 9 5
0 3 -7 0 -20 -6 -30z m-3952 20 c-10 -2 -26 -2 -35 0 -10 3 -2 5 17 5 19 0 27
-2 18 -5z m461 -38 c0 -5 -4 -3 -9 5 -5 8 -9 22 -9 30 0 16 17 -16 18 -35z
m-381 28 c-10 -2 -26 -2 -35 0 -10 3 -2 5 17 5 19 0 27 -2 18 -5z m152 -8 c0
-8 -7 -15 -15 -15 -13 0 -14 3 -3 15 16 18 18 18 18 0z m-2130 1 c0 -2 -8 -10
-17 -17 -16 -13 -17 -12 -4 4 13 16 21 21 21 13z m2063 -3 c-13 -2 -33 -2 -45
0 -13 2 -3 4 22 4 25 0 35 -2 23 -4z m-2293 -6 c0 -2 -17 -19 -37 -38 l-38
-34 34 38 c33 34 41 42 41 34z m200 -31 c0 -2 -8 -10 -17 -17 -16 -13 -17 -12
-4 4 13 16 21 21 21 13z m1540 -6 c8 -5 11 -10 5 -10 -5 0 -17 5 -25 10 -8 5
-10 10 -5 10 6 0 17 -5 25 -10z m310 0 c-8 -5 -19 -10 -25 -10 -5 0 -3 5 5 10
8 5 20 10 25 10 6 0 3 -5 -5 -10z m623 3 c-7 -2 -21 -2 -30 0 -10 3 -4 5 12 5
17 0 24 -2 18 -5z m3388 -20 c-12 -20 -14 -14 -5 12 4 9 9 14 11 11 3 -2 0
-13 -6 -23z m-3435 -20 c-3 -4 -6 -1 -6 6 0 7 -4 9 -10 6 -6 -4 -7 1 -3 11 6
15 7 15 15 -1 6 -9 7 -19 4 -22z m132 30 c-10 -2 -26 -2 -35 0 -10 3 -2 5 17
5 19 0 27 -2 18 -5z m-971 -9 c-3 -3 -12 -4 -19 -1 -8 3 -5 6 6 6 11 1 17 -2
13 -5z m1066 -1 c-13 -2 -33 -2 -45 0 -13 2 -3 4 22 4 25 0 35 -2 23 -4z
m3008 -20 c-12 -20 -14 -14 -5 12 4 9 9 14 11 11 3 -2 0 -13 -6 -23z m-8691
-48 c35 -36 62 -65 59 -65 -2 0 -34 29 -69 65 -35 36 -62 65 -59 65 2 0 34
-29 69 -65z m4977 59 c-3 -3 -12 -4 -19 -1 -8 3 -5 6 6 6 11 1 17 -2 13 -5z
m786 -1 c-7 -2 -21 -2 -30 0 -10 3 -4 5 12 5 17 0 24 -2 18 -5z m-2763 -6 c0
-2 -10 -12 -22 -23 l-23 -19 19 23 c18 21 26 27 26 19z m1703 -4 c-7 -2 -19
-2 -25 0 -7 3 -2 5 12 5 14 0 19 -2 13 -5z m340 0 c-7 -2 -19 -2 -25 0 -7 3
-2 5 12 5 14 0 19 -2 13 -5z m810 0 c-7 -2 -21 -2 -30 0 -10 3 -4 5 12 5 17 0
24 -2 18 -5z m-1085 -10 c-10 -2 -26 -2 -35 0 -10 3 -2 5 17 5 19 0 27 -2 18
-5z m329 1 c-3 -3 -12 -4 -19 -1 -8 3 -5 6 6 6 11 1 17 -2 13 -5z m836 -1 c-7
-2 -19 -2 -25 0 -7 3 -2 5 12 5 14 0 19 -2 13 -5z m-770 -10 c-7 -2 -19 -2
-25 0 -7 3 -2 5 12 5 14 0 19 -2 13 -5z m870 0 c-7 -2 -21 -2 -30 0 -10 3 -4
5 12 5 17 0 24 -2 18 -5z m-809 -12 c4 -5 -3 -7 -14 -4 -23 6 -26 13 -6 13 8
0 17 -4 20 -9z m889 2 c-7 -2 -19 -2 -25 0 -7 3 -2 5 12 5 14 0 19 -2 13 -5z
m-3393 -6 c0 -2 -12 -14 -27 -28 l-28 -24 24 28 c23 25 31 32 31 24z m3488 -4
c-10 -2 -26 -2 -35 0 -10 3 -2 5 17 5 19 0 27 -2 18 -5z m85 -10 c-7 -2 -19
-2 -25 0 -7 3 -2 5 12 5 14 0 19 -2 13 -5z m724 -25 c-3 -7 -5 -2 -5 12 0 14
2 19 5 13 2 -7 2 -19 0 -25z m-630 16 c-3 -3 -12 -4 -19 -1 -8 3 -5 6 6 6 11
1 17 -2 13 -5z m-824 -11 c-7 -2 -19 -2 -25 0 -7 3 -2 5 12 5 14 0 19 -2 13
-5z m900 0 c-7 -2 -19 -2 -25 0 -7 3 -2 5 12 5 14 0 19 -2 13 -5z m-3533 -6
c0 -2 -19 -21 -42 -42 l-43 -40 40 43 c36 39 45 47 45 39z m2807 -13 c-3 -3
-12 -4 -19 -1 -8 3 -5 6 6 6 11 1 17 -2 13 -5z m906 -1 c-7 -2 -19 -2 -25 0
-7 3 -2 5 12 5 14 0 19 -2 13 -5z m-726 -19 c-3 -3 -12 -4 -19 -1 -8 3 -5 6 6
6 11 1 17 -2 13 -5z m906 -1 c-7 -2 -19 -2 -25 0 -7 3 -2 5 12 5 14 0 19 -2
13 -5z m-726 -19 c-3 -3 -12 -4 -19 -1 -8 3 -5 6 6 6 11 1 17 -2 13 -5z m890
0 c-3 -3 -12 -4 -19 -1 -8 3 -5 6 6 6 11 1 17 -2 13 -5z m-720 -20 c-3 -3 -12
-4 -19 -1 -8 3 -5 6 6 6 11 1 17 -2 13 -5z m180 -20 c-3 -3 -12 -4 -19 -1 -8
3 -5 6 6 6 11 1 17 -2 13 -5z m350 -40 c-3 -3 -12 -4 -19 -1 -8 3 -5 6 6 6 11
1 17 -2 13 -5z m180 -20 c-3 -3 -12 -4 -19 -1 -8 3 -5 6 6 6 11 1 17 -2 13 -5z"/>
<path d="M8005 3881 c-50 -43 -101 -90 -114 -105 -23 -24 -23 -26 -5 -26 51 0
126 30 188 75 36 27 66 52 66 57 0 12 -33 78 -40 78 -3 0 -46 -35 -95 -79z"/>
<path d="M9078 2403 c6 -2 18 -2 25 0 6 3 1 5 -13 5 -14 0 -19 -2 -12 -5z"/>
<path d="M9128 2403 c7 -3 16 -2 19 1 4 3 -2 6 -13 5 -11 0 -14 -3 -6 -6z"/>
<path d="M8843 2383 c9 -2 25 -2 35 0 9 3 1 5 -18 5 -19 0 -27 -2 -17 -5z"/>
<path d="M8608 2363 c6 -2 18 -2 25 0 6 3 1 5 -13 5 -14 0 -19 -2 -12 -5z"/>
<path d="M8403 2343 c9 -2 23 -2 30 0 6 3 -1 5 -18 5 -16 0 -22 -2 -12 -5z"/>
<path d="M8278 2333 c17 -2 47 -2 65 0 17 2 3 4 -33 4 -36 0 -50 -2 -32 -4z"/>
<path d="M8188 2323 c12 -2 30 -2 40 0 9 3 -1 5 -23 4 -22 0 -30 -2 -17 -4z"/>
<path d="M8057 2313 c18 -2 50 -2 70 0 21 2 7 4 -32 4 -38 0 -55 -2 -38 -4z"/>
<path d="M7943 2303 c15 -2 39 -2 55 0 15 2 2 4 -28 4 -30 0 -43 -2 -27 -4z"/>
<path d="M7778 2293 c23 -2 61 -2 85 0 23 2 4 4 -43 4 -47 0 -66 -2 -42 -4z"/>
<path d="M4260 8372 c-14 -9 -53 -38 -86 -64 -53 -41 -68 -48 -106 -48 -50 0
-75 15 -80 47 -3 22 -3 22 -43 4 -45 -20 -243 -187 -269 -225 -16 -25 -16 -25
22 -36 96 -27 102 -26 176 34 84 67 136 86 235 86 81 0 115 -13 175 -69 l29
-26 -7 109 c-3 60 -6 131 -6 158 0 53 -3 55 -40 30z"/>
<path d="M4007 8136 c-42 -11 -149 -75 -162 -96 -3 -5 30 -15 73 -25 42 -9
112 -25 154 -36 43 -10 104 -19 136 -19 49 0 62 4 81 24 23 25 23 25 5 63 -28
56 -99 96 -178 100 -33 1 -82 -3 -109 -11z"/>
<path d="M3562 7930 l-33 -40 23 -9 c13 -4 45 -11 72 -15 47 -6 49 -5 87 37
22 23 39 45 39 48 0 6 -87 19 -130 19 -17 0 -36 -13 -58 -40z"/>
<path d="M3453 7825 c-29 -19 -57 -35 -63 -35 -19 0 -9 -35 18 -67 l28 -32 66
15 c62 14 72 20 124 77 l58 62 -55 7 c-106 12 -122 10 -176 -27z"/>
<path d="M4730 6369 l-244 -154 84 -18 c47 -10 123 -30 169 -43 l84 -24 38 30
c20 17 63 69 95 115 l58 85 -20 81 -19 81 -245 -153z"/>
<path d="M4162 5995 c-23 -10 -39 -28 -53 -60 -26 -59 -36 -140 -19 -160 15
-18 91 -20 108 -3 10 10 16 7 28 -11 15 -20 22 -22 63 -16 71 10 124 38 160
84 18 23 53 55 77 72 24 16 44 34 44 38 0 5 -24 12 -52 15 -29 4 -107 18 -173
32 -139 28 -139 28 -183 9z"/>
<path d="M4985 5565 c-121 -95 -172 -127 -363 -230 -184 -99 -187 -101 -211
-150 -50 -106 -518 -1175 -841 -1922 -80 -187 -84 -193 -127 -219 l-44 -25 3
-72 3 -71 60 2 c33 1 84 5 113 8 l52 6 0 71 c0 69 1 72 104 271 57 111 255
496 441 856 185 360 344 666 352 678 14 23 15 23 35 5 12 -10 289 -308 616
-663 597 -647 741 -800 753 -800 4 0 12 14 19 31 14 33 44 49 89 49 28 0 49
17 70 57 10 20 -44 91 -638 844 l-649 822 -10 61 c-9 57 -8 64 16 109 31 57
32 58 105 85 52 19 79 22 223 22 90 0 164 3 164 8 1 4 -14 55 -32 115 l-33
107 -100 0 -100 0 -70 -55z"/>
<path d="M6506 5249 c-23 -76 -21 -190 4 -238 19 -38 140 -142 366 -314 55
-42 108 -85 118 -96 13 -14 37 -22 77 -27 56 -6 63 -10 120 -67 59 -59 89
-110 89 -148 0 -22 54 -121 75 -139 10 -9 15 -5 20 19 3 16 2 39 -4 49 -15 27
84 312 108 312 11 0 31 37 65 120 26 65 46 123 45 129 -2 5 -58 57 -125 114
-110 96 -203 197 -233 254 -14 28 -20 29 -341 53 -146 11 -288 23 -317 26
l-52 6 -15 -53z"/>
<path d="M5531 4656 c-19 -20 -21 -28 -12 -44 15 -28 15 -27 -24 -51 -34 -20
-35 -22 -35 -82 0 -72 22 -125 62 -148 31 -18 33 -23 18 -51 -13 -25 29 -88
225 -335 239 -303 250 -315 292 -315 28 0 33 3 29 18 -3 9 -12 44 -22 77 -39
139 -101 282 -204 470 -60 110 -136 257 -170 328 -45 94 -66 127 -79 127 -10
0 -24 7 -31 15 -17 20 -23 19 -49 -9z"/>
<path d="M2150 2310 c12 -16 24 -30 26 -30 3 0 -4 14 -16 30 -12 17 -24 30
-26 30 -3 0 4 -13 16 -30z"/>
<path d="M5280 2319 c-7 -11 -10 -23 -7 -25 2 -2 9 7 15 21 14 30 7 33 -8 4z"/>
<path d="M6390 2330 c8 -5 20 -10 25 -10 6 0 3 5 -5 10 -8 5 -19 10 -25 10 -5
0 -3 -5 5 -10z"/>
</g>
</svg>
