<?xml version="1.0" standalone="no"?>
<!DOCTYPE svg PUBLIC "-//W3C//DTD SVG 20010904//EN"
 "http://www.w3.org/TR/2001/REC-SVG-20010904/DTD/svg10.dtd">
<svg version="1.0" xmlns="http://www.w3.org/2000/svg"
 width="523.000000pt" height="523.000000pt" viewBox="0 0 523.000000 523.000000"
 preserveAspectRatio="xMidYMid meet">
<metadata>
Created by potrace 1.11, written by Peter Selinger 2001-2013
</metadata>
<g transform="translate(0.000000,523.000000) scale(0.100000,-0.100000)"
fill="#000000" stroke="none">
<path d="M2462 5135 c0 -25 -1 -48 -4 -50 -2 -3 -29 -7 -59 -10 -109 -11 -155
-17 -203 -26 -81 -15 -84 -14 -97 37 -7 25 -17 43 -23 41 -6 -2 -69 -19 -141
-37 -71 -18 -133 -36 -137 -39 -4 -4 -1 -28 7 -54 12 -39 12 -47 1 -47 -15 0
-233 -86 -250 -98 -6 -5 -23 -13 -38 -20 -26 -11 -29 -9 -50 28 -13 22 -25 40
-28 40 -20 0 -260 -142 -260 -154 0 -5 6 -17 14 -25 29 -33 28 -57 -1 -76 -45
-29 -165 -121 -202 -154 -19 -17 -39 -31 -45 -31 -5 0 -24 14 -41 30 l-32 31
-107 -107 -107 -107 34 -35 35 -35 -62 -76 c-34 -42 -81 -103 -105 -136 -25
-33 -46 -62 -47 -64 -2 -2 -19 6 -39 18 -20 11 -40 21 -45 21 -4 0 -25 -30
-47 -67 -21 -38 -43 -77 -50 -88 -6 -11 -19 -35 -28 -53 -10 -18 -22 -35 -27
-38 -6 -4 11 -20 36 -35 l46 -29 -24 -48 c-28 -56 -79 -181 -96 -235 -12 -38
-13 -39 -49 -32 -62 13 -63 12 -76 -35 -43 -156 -65 -237 -65 -243 0 -4 6 -7
13 -7 6 0 28 -5 48 -10 36 -10 37 -11 28 -49 -9 -39 -13 -71 -25 -171 -4 -30
-8 -62 -10 -70 -1 -8 -3 -27 -3 -42 -1 -27 -3 -28 -51 -28 l-51 0 3 -152 3
-153 42 0 c23 0 44 -2 46 -5 5 -5 10 -41 22 -155 3 -27 7 -61 10 -75 3 -14 8
-46 11 -71 l6 -46 -46 -12 c-37 -9 -46 -15 -42 -29 3 -9 17 -62 31 -117 15
-55 31 -114 36 -132 l10 -32 45 14 c43 13 46 12 54 -8 118 -290 285 -584 436
-764 100 -120 325 -340 428 -417 97 -73 353 -226 473 -283 83 -40 325 -125
384 -137 13 -2 62 -13 109 -25 202 -50 273 -56 595 -55 272 1 339 9 559 65
290 74 487 156 713 297 280 174 480 353 681 611 108 138 322 517 372 661 13
36 24 66 25 68 1 1 23 -4 48 -12 l46 -14 15 52 c8 28 24 87 36 131 12 44 24
88 26 97 4 14 -5 20 -42 29 l-46 12 6 46 c3 25 8 55 10 66 2 11 7 49 11 85 11
93 13 112 14 136 1 19 6 21 51 19 l50 -2 0 153 0 154 -50 0 c-45 0 -50 2 -51
23 -2 39 -17 180 -24 217 -3 14 -7 40 -10 59 -3 19 -8 38 -10 42 -3 4 17 13
45 20 57 15 56 -6 5 184 -22 81 -37 120 -47 119 -7 -1 -29 -5 -48 -8 l-35 -7
-29 78 c-15 43 -45 115 -66 160 l-38 82 42 27 42 27 -72 125 c-40 68 -76 127
-79 130 -3 3 -24 -5 -47 -18 l-42 -23 -15 24 c-25 38 -142 191 -168 219 -30
32 -29 38 8 76 l30 31 -107 107 -107 107 -31 -30 c-18 -17 -35 -31 -39 -31 -4
0 -51 35 -105 78 -54 43 -114 88 -135 101 -20 12 -37 25 -37 27 0 3 9 23 20
45 20 37 20 59 0 59 -4 0 -38 18 -74 40 -36 22 -68 40 -70 40 -3 0 -22 11 -42
25 -47 32 -57 31 -74 -2 -27 -54 -26 -54 -113 -13 -45 21 -117 51 -160 66 -78
29 -79 29 -73 59 13 70 16 66 -59 86 -38 11 -103 28 -143 40 -40 12 -75 19
-76 18 -2 -2 -8 -25 -15 -50 l-13 -45 -58 12 c-32 6 -89 15 -127 19 -37 4 -77
9 -88 10 -11 1 -32 3 -47 4 -27 1 -28 3 -28 51 l0 50 -155 0 -154 0 1 -45z"/>
</g>
</svg>
