<?xml version="1.0" encoding="UTF-8" standalone="no"?>
<svg
   xmlns:dc="http://purl.org/dc/elements/1.1/"
   xmlns:cc="http://creativecommons.org/ns#"
   xmlns:rdf="http://www.w3.org/1999/02/22-rdf-syntax-ns#"
   xmlns:svg="http://www.w3.org/2000/svg"
   xmlns="http://www.w3.org/2000/svg"
   xmlns:sodipodi="http://sodipodi.sourceforge.net/DTD/sodipodi-0.dtd"
   xmlns:inkscape="http://www.inkscape.org/namespaces/inkscape"
   inkscape:version="1.0 (4035a4fb49, 2020-05-01)"
   sodipodi:docname="walk.svg"
   xml:space="preserve"
   style="enable-background:new 0 0 458.667 458.667;"
   viewBox="0 0 458.667 458.667"
   y="0px"
   x="0px"
   id="Capa_1"
   version="1.1"><metadata
   id="metadata47"><rdf:RDF><cc:Work
       rdf:about=""><dc:format>image/svg+xml</dc:format><dc:type
         rdf:resource="http://purl.org/dc/dcmitype/StillImage" /></cc:Work></rdf:RDF></metadata><defs
   id="defs45" /><sodipodi:namedview
   inkscape:current-layer="Capa_1"
   inkscape:window-maximized="1"
   inkscape:window-y="-8"
   inkscape:window-x="1912"
   inkscape:cy="229.3335"
   inkscape:cx="229.3335"
   inkscape:zoom="1.8531964"
   showgrid="false"
   id="namedview43"
   inkscape:window-height="1017"
   inkscape:window-width="1920"
   inkscape:pageshadow="2"
   inkscape:pageopacity="0"
   guidetolerance="10"
   gridtolerance="10"
   objecttolerance="10"
   borderopacity="1"
   bordercolor="#666666"
   pagecolor="#ffffff" />
<g
   style="fill:#39ff14;fill-opacity:1"
   id="g10">
	<g
   style="fill:#39ff14;fill-opacity:1"
   id="g8">
		<g
   style="fill:#39ff14;fill-opacity:1"
   id="g6">
			<path
   style="fill:#39ff14;fill-opacity:1"
   id="path2"
   d="M250.667,85.333c23.467,0,42.667-19.2,42.667-42.667C293.333,19.2,274.133,0,250.667,0S208,19.2,208,42.667     S227.2,85.333,250.667,85.333z" />
			<path
   style="fill:#39ff14;fill-opacity:1"
   id="path4"
   d="M368,245.333v-42.667c-39.467,0-73.6-21.333-92.8-52.267l-20.267-34.133C247.467,103.467,233.6,96,218.667,96     c-5.333,0-10.667,1.067-16,3.2l-112,45.867v100.267h42.667v-71.467l37.333-16L112,458.667h44.8L194.133,288L240,330.667v128     h42.667V297.6l-43.733-43.733l12.8-64C279.467,224,321.067,245.333,368,245.333z" />
		</g>
	</g>
</g>
<g
   id="g12">
</g>
<g
   id="g14">
</g>
<g
   id="g16">
</g>
<g
   id="g18">
</g>
<g
   id="g20">
</g>
<g
   id="g22">
</g>
<g
   id="g24">
</g>
<g
   id="g26">
</g>
<g
   id="g28">
</g>
<g
   id="g30">
</g>
<g
   id="g32">
</g>
<g
   id="g34">
</g>
<g
   id="g36">
</g>
<g
   id="g38">
</g>
<g
   id="g40">
</g>
</svg>
