<?xml version="1.0" encoding="UTF-8" standalone="no"?>
<svg
   xmlns:dc="http://purl.org/dc/elements/1.1/"
   xmlns:cc="http://creativecommons.org/ns#"
   xmlns:rdf="http://www.w3.org/1999/02/22-rdf-syntax-ns#"
   xmlns:svg="http://www.w3.org/2000/svg"
   xmlns="http://www.w3.org/2000/svg"
   xmlns:sodipodi="http://sodipodi.sourceforge.net/DTD/sodipodi-0.dtd"
   xmlns:inkscape="http://www.inkscape.org/namespaces/inkscape"
   version="1.1"
   id="Capa_1"
   x="0px"
   y="0px"
   viewBox="0 0 60 60"
   style="enable-background:new 60 60 60 60;"
   xml:space="preserve"
   sodipodi:docname="battery-green.svg"
   inkscape:version="1.0 (4035a4fb49, 2020-05-01)"><metadata
   id="metadata94"><rdf:RDF><cc:Work
       rdf:about=""><dc:format>image/svg+xml</dc:format><dc:type
         rdf:resource="http://purl.org/dc/dcmitype/StillImage" /><dc:title /></cc:Work></rdf:RDF></metadata><defs
   id="defs92" /><sodipodi:namedview
   inkscape:document-rotation="0"
   pagecolor="#ffffff"
   bordercolor="#666666"
   borderopacity="1"
   objecttolerance="10"
   gridtolerance="10"
   guidetolerance="10"
   inkscape:pageopacity="0"
   inkscape:pageshadow="2"
   inkscape:window-width="1920"
   inkscape:window-height="1017"
   id="namedview90"
   showgrid="false"
   inkscape:zoom="6.8916667"
   inkscape:cx="32.635648"
   inkscape:cy="30.720593"
   inkscape:window-x="-8"
   inkscape:window-y="-8"
   inkscape:window-maximized="1"
   inkscape:current-layer="Capa_1" />
<g
   transform="rotate(90,30,30)"
   id="g57"
   style="fill:#000000">
	<path
   d="M 42.536,4 H 36 V 0 H 24 V 4 H 17.464 C 15.554,4 14,5.554 14,7.464 V 56.536 C 14,58.446 15.554,60 17.464,60 H 42.535 C 44.446,60 46,58.446 46,56.536 V 7.464 C 46,5.554 44.446,4 42.536,4 Z M 44,56.536 C 44,57.344 43.343,58 42.536,58 H 17.464 C 16.657,58 16,57.344 16,56.536 V 7.464 C 16,6.656 16.657,6 17.464,6 H 24 36 42.536 C 43.343,6 44,6.656 44,7.464 Z"
   id="path53"
   style="fill:#000000" />
	<path
   d="M 37,29 H 34 V 17.108 c 0.013,-0.26 -0.069,-0.515 -0.236,-0.72 -0.381,-0.467 -1.264,-0.463 -1.642,0.004 -0.026,0.032 -0.05,0.066 -0.072,0.103 l -9.9,15.979 c -0.191,0.309 -0.2,0.696 -0.023,1.013 C 22.303,33.804 22.637,34 23,34 h 4 l 0.002,12.929 h 0.001 c 0.001,0.235 0.077,0.479 0.215,0.657 0.189,0.247 0.529,0.414 0.84,0.414 0.305,0 0.636,-0.16 0.825,-0.398 0.04,-0.05 0.074,-0.103 0.104,-0.159 l 8.899,-16.979 c 0.163,-0.31 0.151,-0.682 -0.03,-0.981 C 37.675,29.184 37.35,29 37,29 Z"
   id="path55"
   style="fill:#000000" />
</g>
<g
   id="g59">
</g>
<g
   id="g61">
</g>
<g
   id="g63">
</g>
<g
   id="g65">
</g>
<g
   id="g67">
</g>
<g
   id="g69">
</g>
<g
   id="g71">
</g>
<g
   id="g73">
</g>
<g
   id="g75">
</g>
<g
   id="g77">
</g>
<g
   id="g79">
</g>
<g
   id="g81">
</g>
<g
   id="g83">
</g>
<g
   id="g85">
</g>
<g
   id="g87">
</g>
<path
   style="opacity:1;fill:#00ff00;fill-opacity:1;stroke:#000000;stroke-width:1;stroke-miterlimit:4;stroke-dasharray:none;stroke-opacity:1"
   d="m 2.1660889,16.841596 c 0.17077,-0.328346 0.398354,-0.548652 0.720248,-0.697215 0.280328,-0.12938 1.134182,-0.133993 25.0869731,-0.135532 22.21965,-0.0014 24.824699,0.01008 25.065515,0.110696 0.34205,0.142918 0.574837,0.360686 0.749373,0.701023 0.134159,0.261607 0.138042,0.631517 0.138042,13.15283 0,12.521313 -0.0039,12.891223 -0.138042,13.15283 -0.174536,0.340338 -0.407323,0.558105 -0.749373,0.701023 -0.24079,0.100608 -2.846679,0.11229 -25.049707,0.11229 -22.2030291,0 -24.8089181,-0.01168 -25.0497081,-0.11229 -0.342049,-0.142918 -0.574837,-0.360685 -0.749372,-0.701023 -0.134167,-0.26162 -0.13803,-0.631305 -0.137595,-13.168077 3.99e-4,-11.545208 0.01233,-12.921743 0.113646,-13.116555 z m 9.9355851,11.717221 c 0.05096,0.09985 0.153137,0.234348 0.227053,0.29888 0.07392,0.06453 4.006976,2.145772 8.740132,4.62498 9.261713,4.851247 8.886542,4.676382 9.430093,4.3953 0.119493,-0.06179 0.28099,-0.21687 0.358883,-0.344619 0.129483,-0.212359 0.141646,-0.373759 0.141894,-1.882814 L 31,34 h 6.119864 6.119863 l 0.246522,-0.164686 c 0.349063,-0.233191 0.515519,-0.588037 0.478323,-1.019678 -0.01659,-0.192513 -0.09436,-0.437374 -0.172828,-0.544136 -0.08166,-0.111106 -3.615024,-2.347872 -8.262851,-5.230725 -7.502728,-4.653629 -8.14777,-5.038734 -8.482943,-5.064498 -0.412301,-0.03169 -0.735361,0.124569 -0.957365,0.463074 -0.117393,0.179 -0.133189,0.422754 -0.153019,2.361384 l -0.02211,2.16178 h -6.601803 c -6.985515,0 -6.825497,-0.0072 -7.097918,0.32101 -0.277673,0.334576 -0.323868,0.860297 -0.112057,1.275292 z"
   id="path923" /></svg>
