<?xml version="1.0" encoding="UTF-8" standalone="no"?>
<svg
   xmlns:dc="http://purl.org/dc/elements/1.1/"
   xmlns:cc="http://creativecommons.org/ns#"
   xmlns:rdf="http://www.w3.org/1999/02/22-rdf-syntax-ns#"
   xmlns:svg="http://www.w3.org/2000/svg"
   xmlns="http://www.w3.org/2000/svg"
   xmlns:sodipodi="http://sodipodi.sourceforge.net/DTD/sodipodi-0.dtd"
   xmlns:inkscape="http://www.inkscape.org/namespaces/inkscape"
   inkscape:version="1.0 (4035a4fb49, 2020-05-01)"
   sodipodi:docname="loading.svg"
   xml:space="preserve"
   style="enable-background:new 0 0 512 512;"
   viewBox="0 0 512 512"
   y="0px"
   x="0px"
   id="Capa_1"
   version="1.1"><metadata
   id="metadata109"><rdf:RDF><cc:Work
       rdf:about=""><dc:format>image/svg+xml</dc:format><dc:type
         rdf:resource="http://purl.org/dc/dcmitype/StillImage" /></cc:Work></rdf:RDF></metadata><defs
   id="defs107" /><sodipodi:namedview
   inkscape:current-layer="Capa_1"
   inkscape:window-maximized="1"
   inkscape:window-y="-8"
   inkscape:window-x="1912"
   inkscape:cy="247.03504"
   inkscape:cx="223.80966"
   inkscape:zoom="1.6601562"
   showgrid="false"
   id="namedview105"
   inkscape:window-height="1017"
   inkscape:window-width="1920"
   inkscape:pageshadow="2"
   inkscape:pageopacity="0"
   guidetolerance="10"
   gridtolerance="10"
   objecttolerance="10"
   borderopacity="1"
   bordercolor="#666666"
   pagecolor="#ffffff" />
<g
   style="fill:#445dfe;fill-opacity:1"
   id="g6">
	<g
   style="fill:#445dfe;fill-opacity:1"
   id="g4">
		<path
   style="fill:#445dfe;fill-opacity:1"
   id="path2"
   d="M256.001,0c-8.284,0-15,6.716-15,15v96.4c0,8.284,6.716,15,15,15s15-6.716,15-15V15C271.001,6.716,264.285,0,256.001,0z" />
	</g>
</g>
<g
   style="fill:#445dfe;fill-opacity:1"
   id="g12">
	<g
   style="fill:#445dfe;fill-opacity:1"
   id="g10">
		<path
   style="fill:#445dfe;fill-opacity:1"
   id="path8"
   d="M256.001,385.601c-8.284,0-15,6.716-15,15V497c0,8.284,6.716,15,15,15s15-6.716,15-15v-96.399    C271.001,392.316,264.285,385.601,256.001,385.601z" />
	</g>
</g>
<g
   style="fill:#445dfe;fill-opacity:1"
   id="g18">
	<g
   style="fill:#445dfe;fill-opacity:1"
   id="g16">
		<path
   style="fill:#445dfe;fill-opacity:1"
   id="path14"
   d="M196.691,123.272l-48.2-83.485c-4.142-7.175-13.316-9.633-20.49-5.49c-7.174,4.142-9.632,13.316-5.49,20.49l48.2,83.485    c2.778,4.813,7.82,7.502,13.004,7.502c2.545,0,5.124-0.648,7.486-2.012C198.375,139.62,200.833,130.446,196.691,123.272z" />
	</g>
</g>
<g
   style="fill:#445dfe;fill-opacity:1"
   id="g24">
	<g
   style="fill:#445dfe;fill-opacity:1"
   id="g22">
		<path
   style="fill:#445dfe;fill-opacity:1"
   id="path20"
   d="M389.491,457.212l-48.199-83.483c-4.142-7.175-13.316-9.633-20.49-5.49c-7.174,4.142-9.632,13.316-5.49,20.49    l48.199,83.483c2.778,4.813,7.82,7.502,13.004,7.502c2.545,0,5.124-0.648,7.486-2.012    C391.175,473.56,393.633,464.386,389.491,457.212z" />
	</g>
</g>
<g
   style="fill:#445dfe;fill-opacity:1"
   id="g30">
	<g
   style="fill:#445dfe;fill-opacity:1"
   id="g28">
		<path
   style="fill:#445dfe;fill-opacity:1"
   id="path26"
   d="M138.274,170.711L54.788,122.51c-7.176-4.144-16.348-1.685-20.49,5.49c-4.142,7.174-1.684,16.348,5.49,20.49    l83.486,48.202c2.362,1.364,4.941,2.012,7.486,2.012c5.184,0,10.226-2.69,13.004-7.503    C147.906,184.027,145.448,174.853,138.274,170.711z" />
	</g>
</g>
<g
   style="fill:#445dfe;fill-opacity:1"
   id="g36">
	<g
   style="fill:#445dfe;fill-opacity:1"
   id="g34">
		<path
   style="fill:#445dfe;fill-opacity:1"
   id="path32"
   d="M472.213,363.51l-83.484-48.199c-7.176-4.142-16.349-1.684-20.49,5.491c-4.142,7.175-1.684,16.349,5.49,20.49    l83.484,48.199c2.363,1.364,4.941,2.012,7.486,2.012c5.184,0,10.227-2.69,13.004-7.502    C481.845,376.825,479.387,367.651,472.213,363.51z" />
	</g>
</g>
<g
   style="fill:#445dfe;fill-opacity:1"
   id="g42">
	<g
   style="fill:#445dfe;fill-opacity:1"
   id="g40">
		<path
   style="fill:#445dfe;fill-opacity:1"
   id="path38"
   d="M111.401,241.002H15c-8.284,0-15,6.716-15,15s6.716,15,15,15h96.401c8.284,0,15-6.716,15-15    S119.685,241.002,111.401,241.002z" />
	</g>
</g>
<g
   style="fill:#445dfe;fill-opacity:1"
   id="g48">
	<g
   style="fill:#445dfe;fill-opacity:1"
   id="g46">
		<path
   style="fill:#445dfe;fill-opacity:1"
   id="path44"
   d="M497,241.002h-96.398c-8.284,0-15,6.716-15,15s6.716,15,15,15H497c8.284,0,15-6.716,15-15S505.284,241.002,497,241.002z" />
	</g>
</g>
<g
   style="fill:#445dfe;fill-opacity:1"
   id="g54">
	<g
   style="fill:#445dfe;fill-opacity:1"
   id="g52">
		<path
   style="fill:#445dfe;fill-opacity:1"
   id="path50"
   d="M143.765,320.802c-4.142-7.175-13.314-9.633-20.49-5.49l-83.486,48.2c-7.174,4.142-9.632,13.316-5.49,20.49    c2.778,4.813,7.82,7.502,13.004,7.502c2.545,0,5.124-0.648,7.486-2.012l83.486-48.2    C145.449,337.15,147.907,327.976,143.765,320.802z" />
	</g>
</g>
<g
   style="fill:#445dfe;fill-opacity:1"
   id="g60">
	<g
   style="fill:#445dfe;fill-opacity:1"
   id="g58">
		<path
   style="fill:#445dfe;fill-opacity:1"
   id="path56"
   d="M477.702,128.003c-4.142-7.175-13.315-9.632-20.49-5.49l-83.484,48.2c-7.174,4.141-9.632,13.315-5.49,20.489    c2.778,4.813,7.82,7.503,13.004,7.503c2.544,0,5.124-0.648,7.486-2.012l83.484-48.2    C479.386,144.351,481.844,135.177,477.702,128.003z" />
	</g>
</g>
<g
   style="fill:#445dfe;fill-opacity:1"
   id="g66">
	<g
   style="fill:#445dfe;fill-opacity:1"
   id="g64">
		<path
   style="fill:#445dfe;fill-opacity:1"
   id="path62"
   d="M191.201,368.239c-7.174-4.144-16.349-1.685-20.49,5.49l-48.2,83.485c-4.142,7.174-1.684,16.348,5.49,20.49    c2.362,1.364,4.941,2.012,7.486,2.012c5.184,0,10.227-2.69,13.004-7.502l48.2-83.485    C200.833,381.555,198.375,372.381,191.201,368.239z" />
	</g>
</g>
<g
   style="fill:#445dfe;fill-opacity:1"
   id="g72">
	<g
   style="fill:#445dfe;fill-opacity:1"
   id="g70">
		<path
   style="fill:#445dfe;fill-opacity:1"
   id="path68"
   d="M384.001,34.3c-7.175-4.144-16.349-1.685-20.49,5.49l-48.199,83.483c-4.143,7.174-1.685,16.348,5.49,20.49    c2.362,1.364,4.941,2.012,7.486,2.012c5.184,0,10.226-2.69,13.004-7.502l48.199-83.483    C393.633,47.616,391.175,38.442,384.001,34.3z" />
	</g>
</g>
<g
   style="fill:#445dfe;fill-opacity:1"
   id="g74">
</g>
<g
   style="fill:#445dfe;fill-opacity:1"
   id="g76">
</g>
<g
   style="fill:#445dfe;fill-opacity:1"
   id="g78">
</g>
<g
   style="fill:#445dfe;fill-opacity:1"
   id="g80">
</g>
<g
   style="fill:#445dfe;fill-opacity:1"
   id="g82">
</g>
<g
   style="fill:#445dfe;fill-opacity:1"
   id="g84">
</g>
<g
   style="fill:#445dfe;fill-opacity:1"
   id="g86">
</g>
<g
   style="fill:#445dfe;fill-opacity:1"
   id="g88">
</g>
<g
   style="fill:#445dfe;fill-opacity:1"
   id="g90">
</g>
<g
   style="fill:#445dfe;fill-opacity:1"
   id="g92">
</g>
<g
   style="fill:#445dfe;fill-opacity:1"
   id="g94">
</g>
<g
   style="fill:#445dfe;fill-opacity:1"
   id="g96">
</g>
<g
   style="fill:#445dfe;fill-opacity:1"
   id="g98">
</g>
<g
   style="fill:#445dfe;fill-opacity:1"
   id="g100">
</g>
<g
   style="fill:#445dfe;fill-opacity:1"
   id="g102">
</g>
</svg>
