<svg id="Capa_1" enable-background="new 0 0 512 512" height="512" viewBox="0 0 512 512" width="512" xmlns="http://www.w3.org/2000/svg"><g><path d="m504.485 113.383h-60.812v-13.651c0-4.151-3.365-7.515-7.515-7.515s-7.515 3.364-7.515 7.515v13.651h-60.812c-4.15 0-7.515 3.364-7.515 7.515s3.365 7.515 7.515 7.515h60.812v22.925h-18.446c-4.15 0-7.515 3.364-7.515 7.515v7.774h-202.68c-4.15 0-7.515 3.364-7.515 7.515s3.365 7.515 7.515 7.515h202.682v15.24h-37.246c-23.088 0-43.997 14.543-52.03 36.188-6.173 16.633-22.24 27.808-39.982 27.808h-34.853c-17.742 0-33.809-11.175-39.982-27.808-8.033-21.645-28.942-36.188-52.03-36.188h-37.245v-15.24h60.627c4.15 0 7.515-3.364 7.515-7.515s-3.365-7.515-7.515-7.515h-60.627v-7.774c0-4.151-3.364-7.515-7.515-7.515h-18.445v-22.925h60.812c4.15 0 7.515-3.364 7.515-7.515s-3.365-7.515-7.515-7.515h-60.812v-13.651c0-4.151-3.364-7.515-7.515-7.515s-7.515 3.364-7.515 7.515v13.651h-60.811c-4.15 0-7.515 3.364-7.515 7.515s3.365 7.515 7.515 7.515h60.812v22.925h-18.446c-4.15 0-7.515 3.364-7.515 7.515v48.474c0 18.458 15.017 33.474 33.475 33.474 16.898 0 30.902-12.587 33.151-28.876h37.569c16.836 0 32.083 10.605 37.94 26.387.778 2.096 1.672 4.127 2.673 6.088-9.911 4.701-27.084 14.405-44.301 31.501-22.939 22.776-50.124 63.394-52.071 128.853h-16.988c-4.15 0-7.515 3.364-7.515 7.515s3.365 7.515 7.515 7.515h24.392c4.15 0 7.515-3.364 7.515-7.515 0-51.664 15.893-93.788 47.238-125.201 17.29-17.327 34.79-26.462 42.912-30.109 10.744 11.8 26.187 18.961 42.703 18.961h9.912v24.836h-23.003c-15.193 0-27.554 12.361-27.554 27.554v38.499c0 15.193 12.36 27.554 27.554 27.554h16.077c4.15 0 7.515-3.364 7.515-7.515s-3.365-7.515-7.515-7.515h-16.077c-6.906 0-12.525-5.618-12.525-12.525v-38.499c0-6.906 5.618-12.525 12.525-12.525h61.035c6.906 0 12.525 5.618 12.525 12.525v38.499c0 6.906-5.618 12.525-12.525 12.525h-14.9c-4.15 0-7.515 3.364-7.515 7.515s3.365 7.515 7.515 7.515h14.9c15.193 0 27.554-12.361 27.554-27.554v-38.499c0-15.193-12.361-27.554-27.554-27.554h-23.003v-24.836h9.912c16.516 0 31.958-7.161 42.702-18.961 8.13 3.651 25.626 12.785 42.912 30.109 31.345 31.413 47.238 73.536 47.238 125.201 0 4.151 3.364 7.515 7.515 7.515h24.392c4.15 0 7.515-3.364 7.515-7.515s-3.365-7.515-7.515-7.515h-16.988c-1.947-65.459-29.132-106.077-52.071-128.853-17.218-17.096-34.39-26.8-44.301-31.501 1.001-1.961 1.896-3.992 2.673-6.088 5.858-15.783 21.105-26.387 37.94-26.387h37.569c2.249 16.289 16.254 28.876 33.151 28.876 18.458 0 33.475-15.017 33.475-33.474v-48.474c0-4.151-3.365-7.515-7.515-7.515h-18.445v-22.925h60.812c4.15 0 7.515-3.364 7.515-7.515-.001-4.151-3.366-7.515-7.516-7.515zm-410.198 93.942c0 10.17-8.274 18.445-18.446 18.445-10.171 0-18.445-8.275-18.445-18.445v-40.959h36.891zm360.317 0c0 10.17-8.274 18.445-18.445 18.445s-18.446-8.275-18.446-18.445v-40.959h36.891z"/><path d="m273.904 345.368c0-4.151-3.365-7.515-7.515-7.515h-19.602c-4.15 0-7.515 3.364-7.515 7.515s3.365 7.515 7.515 7.515h19.602c4.151 0 7.515-3.364 7.515-7.515z"/></g></svg>