<?xml version="1.0" encoding="UTF-8" standalone="no"?>
<!-- Created with Inkscape (http://www.inkscape.org/) -->
<svg xmlns:dc="http://purl.org/dc/elements/1.1/" xmlns:cc="http://creativecommons.org/ns#" xmlns:rdf="http://www.w3.org/1999/02/22-rdf-syntax-ns#" xmlns:svg="http://www.w3.org/2000/svg" xmlns="http://www.w3.org/2000/svg" xmlns:sodipodi="http://sodipodi.sourceforge.net/DTD/sodipodi-0.dtd" xmlns:inkscape="http://www.inkscape.org/namespaces/inkscape" width="160" height="160" viewBox="0 0 42.333333 42.333334" version="1.1" id="svg975" inkscape:version="0.92.2 2405546, 2018-03-11" sodipodi:docname="odm-logo.svg" nighteye="disabled">
  <defs id="defs969"/>
  <sodipodi:namedview id="base" pagecolor="#ffffff" bordercolor="#666666" borderopacity="1.0" inkscape:pageopacity="0.0" inkscape:pageshadow="2" inkscape:zoom="1.4" inkscape:cx="84.678043" inkscape:cy="62.082594" inkscape:document-units="mm" inkscape:current-layer="layer1" showgrid="false" fit-margin-top="0" fit-margin-left="0" fit-margin-right="0" fit-margin-bottom="0" units="px" inkscape:window-width="1920" inkscape:window-height="1003" inkscape:window-x="0" inkscape:window-y="37" inkscape:window-maximized="1" viewbox-width="42.13"/>
  <metadata id="metadata972">
    <rdf:RDF>
      <cc:Work rdf:about="">
        <dc:format>image/svg+xml</dc:format>
        <dc:type rdf:resource="http://purl.org/dc/dcmitype/StillImage"/>
        <dc:title/>
      </cc:Work>
    </rdf:RDF>
  </metadata>
  <g inkscape:label="Layer 1" inkscape:groupmode="layer" id="layer1" transform="translate(-46.630748,-98.519044)">
    <g id="g1632" transform="matrix(0.42003927,0,0,0.42003927,27.471145,80.984592)">
      <g transform="matrix(0.35277777,0,0,-0.35277777,114.08352,104.58202)" id="g48">
        <path inkscape:connector-curvature="0" id="path50" style="fill:#000000;fill-opacity:1;fill-rule:nonzero;stroke:none" d="m 0,0 c -4.111,2.773 -8.987,5.354 -14.341,7.17 2.008,7.075 3.155,14.628 3.538,22.658 H 10.994 C 9.943,19.025 6.119,8.796 0,0 m -30.689,-22.658 c 6.119,5.832 11.281,14.436 14.819,24.952 4.78,-1.816 8.987,-4.015 12.715,-6.405 -7.266,-8.317 -16.731,-15.01 -27.534,-18.547 M -46.75,-25.431 V 7.744 c 9.273,-0.287 18.069,-1.625 25.908,-3.824 -5.64,-16.253 -14.914,-27.63 -25.908,-29.351 m 0,55.451 h 30.497 c -0.286,-7.458 -1.434,-14.437 -3.155,-20.938 -8.317,2.486 -17.495,4.016 -27.342,4.207 z m 0,26.482 c 9.847,0.287 19.025,1.721 27.342,4.206 2.104,-7.744 3.155,-16.157 3.347,-25.335 h -30.594 z m -0.096,38.624 c 10.995,-1.721 20.459,-13.002 25.909,-29.351 -7.84,-2.294 -16.444,-3.728 -25.718,-4.015 z m 43.595,-21.32 c -3.728,-2.39 -7.935,-4.493 -12.715,-6.405 -3.442,10.325 -8.604,19.025 -14.723,24.856 10.803,-3.346 20.268,-9.942 27.438,-18.451 M 10.994,35.469 h -21.797 c 0,9.56 -1.339,18.834 -3.538,26.96 5.45,2.008 10.23,4.398 14.341,7.17 6.883,-9.56 10.994,-21.415 10.994,-34.13 M -52.2,61.951 c -9.464,0.096 -18.355,1.625 -26.004,4.015 5.45,16.349 15.01,27.726 26.1,29.351 z m 0,-26.482 h -30.784 c 0,8.987 1.147,17.687 3.346,25.335 8.318,-2.486 17.687,-4.111 27.63,-4.207 z m -0.095,-22.18 c -9.943,-0.096 -19.217,-1.721 -27.63,-4.207 -1.72,6.501 -2.772,13.672 -3.059,21.129 H -52.2 Z m 0.095,-38.624 c -11.185,1.625 -20.746,13.002 -26.099,29.35 7.839,2.295 16.73,3.729 26.004,4.016 z m -43.69,21.32 c 3.537,2.294 7.839,4.397 12.428,6.118 3.442,-10.325 8.509,-18.834 14.627,-24.665 -10.516,3.728 -19.885,10.134 -27.055,18.547 m -14.054,34.035 h 21.511 c 0.382,-8.127 1.434,-15.775 3.441,-22.85 -5.162,-2.007 -9.942,-4.397 -14.053,-7.17 -5.928,8.604 -9.943,19.025 -10.899,30.02 m 11.09,39.675 c 4.111,-2.772 8.891,-5.163 14.054,-7.17 -2.295,-8.318 -3.538,-17.4 -3.538,-27.247 h -21.511 c 0.096,12.906 4.016,24.57 10.995,34.417 m 29.924,22.562 c -6.119,-5.831 -11.186,-14.34 -14.628,-24.665 -4.684,1.721 -8.891,3.824 -12.428,6.118 7.266,8.605 16.635,14.915 27.056,18.547 M 4.398,72.85 c -0.956,1.434 -2.008,2.772 -3.06,4.111 -12.046,14.436 -30.402,23.71 -50.574,23.71 h -0.287 c -20.172,0 -38.241,-9.274 -50.287,-23.71 -1.052,-1.339 -2.103,-2.677 -3.06,-4.111 -7.552,-10.708 -12.237,-23.901 -12.046,-38.05 0,-14.054 4.494,-27.343 12.046,-38.051 0.957,-1.434 2.008,-2.772 3.06,-4.11 12.046,-14.437 30.019,-23.615 50.287,-23.71 h 0.287 c 20.459,0 38.528,9.273 50.574,23.71 1.052,1.338 2.104,2.676 3.06,4.11 7.552,10.708 12.237,23.901 12.046,38.051 0,14.34 -4.494,27.342 -12.046,38.05"/>
      </g>
      <g transform="matrix(0.35277777,0,0,-0.35277777,114.08352,104.58202)" id="g52">
        <path inkscape:connector-curvature="0" id="path54" style="fill:none;stroke:#000000;stroke-width:3;stroke-linecap:butt;stroke-linejoin:miter;stroke-miterlimit:10;stroke-dasharray:none;stroke-opacity:1" d="m 0,0 c -4.111,2.773 -8.987,5.354 -14.341,7.17 2.008,7.075 3.155,14.628 3.538,22.658 H 10.994 C 9.943,19.025 6.119,8.796 0,0 Z m -30.689,-22.658 c 6.119,5.832 11.281,14.436 14.819,24.952 4.78,-1.816 8.987,-4.015 12.715,-6.405 -7.266,-8.317 -16.731,-15.01 -27.534,-18.547 z M -46.75,-25.431 V 7.744 c 9.273,-0.287 18.069,-1.625 25.908,-3.824 -5.64,-16.253 -14.914,-27.63 -25.908,-29.351 z m 0,55.451 h 30.497 c -0.286,-7.458 -1.434,-14.437 -3.155,-20.938 -8.317,2.486 -17.495,4.016 -27.342,4.207 z m 0,26.482 c 9.847,0.287 19.025,1.721 27.342,4.206 2.104,-7.744 3.155,-16.157 3.347,-25.335 h -30.594 z m -0.096,38.624 c 10.995,-1.721 20.459,-13.002 25.909,-29.351 -7.84,-2.294 -16.444,-3.728 -25.718,-4.015 z m 43.595,-21.32 c -3.728,-2.39 -7.935,-4.493 -12.715,-6.405 -3.442,10.325 -8.604,19.025 -14.723,24.856 10.803,-3.346 20.268,-9.942 27.438,-18.451 z M 10.994,35.469 h -21.797 c 0,9.56 -1.339,18.834 -3.538,26.96 5.45,2.008 10.23,4.398 14.341,7.17 6.883,-9.56 10.994,-21.415 10.994,-34.13 z M -52.2,61.951 c -9.464,0.096 -18.355,1.625 -26.004,4.015 5.45,16.349 15.01,27.726 26.1,29.351 z m 0,-26.482 h -30.784 c 0,8.987 1.147,17.687 3.346,25.335 8.318,-2.486 17.687,-4.111 27.63,-4.207 z m -0.095,-22.18 c -9.943,-0.096 -19.217,-1.721 -27.63,-4.207 -1.72,6.501 -2.772,13.672 -3.059,21.129 H -52.2 Z m 0.095,-38.624 c -11.185,1.625 -20.746,13.002 -26.099,29.35 7.839,2.295 16.73,3.729 26.004,4.016 z m -43.69,21.32 c 3.537,2.294 7.839,4.397 12.428,6.118 3.442,-10.325 8.509,-18.834 14.627,-24.665 -10.516,3.728 -19.885,10.134 -27.055,18.547 z m -14.054,34.035 h 21.511 c 0.382,-8.127 1.434,-15.775 3.441,-22.85 -5.162,-2.007 -9.942,-4.397 -14.053,-7.17 -5.928,8.604 -9.943,19.025 -10.899,30.02 z m 11.09,39.675 c 4.111,-2.772 8.891,-5.163 14.054,-7.17 -2.295,-8.318 -3.538,-17.4 -3.538,-27.247 h -21.511 c 0.096,12.906 4.016,24.57 10.995,34.417 z m 29.924,22.562 c -6.119,-5.831 -11.186,-14.34 -14.628,-24.665 -4.684,1.721 -8.891,3.824 -12.428,6.118 7.266,8.605 16.635,14.915 27.056,18.547 z M 4.398,72.85 c -0.956,1.434 -2.008,2.772 -3.06,4.111 -12.046,14.436 -30.402,23.71 -50.574,23.71 h -0.287 c -20.172,0 -38.241,-9.274 -50.287,-23.71 -1.052,-1.339 -2.103,-2.677 -3.06,-4.111 -7.552,-10.708 -12.237,-23.901 -12.046,-38.05 0,-14.054 4.494,-27.343 12.046,-38.051 0.957,-1.434 2.008,-2.772 3.06,-4.11 12.046,-14.437 30.019,-23.615 50.287,-23.71 h 0.287 c 20.459,0 38.528,9.273 50.574,23.71 1.052,1.338 2.104,2.676 3.06,4.11 7.552,10.708 12.237,23.901 12.046,38.051 0,14.34 -4.494,27.342 -12.046,38.05 z"/>
      </g>
      <g transform="matrix(0.35277777,0,0,-0.35277777,63.560733,57.02719)" id="g56">
        <path inkscape:connector-curvature="0" id="path58" style="fill:#f15a24;fill-opacity:1;fill-rule:nonzero;stroke:none" d="m 0,0 c 4.171,0 7.553,-3.381 7.553,-7.553 0,-4.171 -3.382,-7.552 -7.553,-7.552 -4.171,0 -7.553,3.381 -7.553,7.552 C -7.553,-3.381 -4.171,0 0,0"/>
      </g>
      <g transform="matrix(0.35277777,0,0,-0.35277777,63.560733,43.806279)" id="g60">
        <path inkscape:connector-curvature="0" id="path62" style="fill:none;stroke:#000000;stroke-width:8;stroke-linecap:butt;stroke-linejoin:miter;stroke-miterlimit:10;stroke-dasharray:none;stroke-opacity:1" d="m 0,0 c 24.869,0 45.029,-20.16 45.029,-45.029 0,-24.869 -20.16,-45.03 -45.029,-45.03 -24.869,0 -45.029,20.161 -45.029,45.03 C -45.029,-20.16 -24.869,0 0,0 Z"/>
      </g>
      <g transform="matrix(0.35277777,0,0,-0.35277777,70.002562,53.317239)" id="g64">
        <path inkscape:connector-curvature="0" id="path66" style="fill:#f15a24;fill-opacity:1;fill-rule:nonzero;stroke:#f15a22;stroke-width:7;stroke-linecap:round;stroke-linejoin:miter;stroke-miterlimit:10;stroke-dasharray:none;stroke-opacity:1" d="M 0,0 -36.425,-36.138"/>
      </g>
      <g transform="matrix(0.35277777,0,0,-0.35277777,128.45117,43.806279)" id="g68">
        <path inkscape:connector-curvature="0" id="path70" style="fill:none;stroke:#000000;stroke-width:8;stroke-linecap:butt;stroke-linejoin:miter;stroke-miterlimit:10;stroke-dasharray:none;stroke-opacity:1" d="m 0,0 c 24.869,0 45.029,-20.16 45.029,-45.029 0,-24.869 -20.16,-45.03 -45.029,-45.03 -24.869,0 -45.029,20.161 -45.029,45.03 C -45.029,-20.16 -24.869,0 0,0 Z"/>
      </g>
      <g transform="matrix(0.35277777,0,0,-0.35277777,128.45117,57.02719)" id="g72">
        <path inkscape:connector-curvature="0" id="path74" style="fill:#f15a24;fill-opacity:1;fill-rule:nonzero;stroke:none" d="m 0,0 c 4.171,0 7.553,-3.381 7.553,-7.553 0,-4.171 -3.382,-7.552 -7.553,-7.552 -4.171,0 -7.553,3.381 -7.553,7.552 C -7.553,-3.381 -4.171,0 0,0"/>
      </g>
      <g transform="matrix(0.35277777,0,0,-0.35277777,122.04307,53.317239)" id="g76">
        <path inkscape:connector-curvature="0" id="path78" style="fill:#f15a24;fill-opacity:1;fill-rule:nonzero;stroke:#f15a22;stroke-width:7;stroke-linecap:round;stroke-linejoin:miter;stroke-miterlimit:10;stroke-dasharray:none;stroke-opacity:1" d="M 0,0 36.425,-36.138"/>
      </g>
      <g transform="matrix(0.35277777,0,0,-0.35277777,63.560733,121.91763)" id="g80">
        <path inkscape:connector-curvature="0" id="path82" style="fill:#f15a24;fill-opacity:1;fill-rule:nonzero;stroke:none" d="m 0,0 c 4.171,0 7.553,-3.381 7.553,-7.553 0,-4.171 -3.382,-7.552 -7.553,-7.552 -4.171,0 -7.553,3.381 -7.553,7.552 C -7.553,-3.381 -4.171,0 0,0"/>
      </g>
      <g transform="matrix(0.35277777,0,0,-0.35277777,63.560733,108.69672)" id="g84">
        <path inkscape:connector-curvature="0" id="path86" style="fill:none;stroke:#000000;stroke-width:8;stroke-linecap:butt;stroke-linejoin:miter;stroke-miterlimit:10;stroke-dasharray:none;stroke-opacity:1" d="m 0,0 c 24.869,0 45.029,-20.16 45.029,-45.029 0,-24.869 -20.16,-45.03 -45.029,-45.03 -24.869,0 -45.029,20.161 -45.029,45.03 C -45.029,-20.16 -24.869,0 0,0 Z"/>
      </g>
      <g transform="matrix(0.35277777,0,0,-0.35277777,57.152633,118.20768)" id="g88">
        <path inkscape:connector-curvature="0" id="path90" style="fill:#f15a24;fill-opacity:1;fill-rule:nonzero;stroke:#f15a22;stroke-width:7;stroke-linecap:round;stroke-linejoin:miter;stroke-miterlimit:10;stroke-dasharray:none;stroke-opacity:1" d="M 0,0 36.425,-36.138"/>
      </g>
      <g transform="matrix(0.35277777,0,0,-0.35277777,128.45117,121.91763)" id="g92">
        <path inkscape:connector-curvature="0" id="path94" style="fill:#f15a24;fill-opacity:1;fill-rule:nonzero;stroke:none" d="m 0,0 c 4.171,0 7.553,-3.381 7.553,-7.553 0,-4.171 -3.382,-7.552 -7.553,-7.552 -4.171,0 -7.553,3.381 -7.553,7.552 C -7.553,-3.381 -4.171,0 0,0"/>
      </g>
      <g transform="matrix(0.35277777,0,0,-0.35277777,128.45117,108.69672)" id="g96">
        <path inkscape:connector-curvature="0" id="path98" style="fill:none;stroke:#000000;stroke-width:8;stroke-linecap:butt;stroke-linejoin:miter;stroke-miterlimit:10;stroke-dasharray:none;stroke-opacity:1" d="m 0,0 c 24.869,0 45.029,-20.16 45.029,-45.029 0,-24.869 -20.16,-45.03 -45.029,-45.03 -24.869,0 -45.029,20.161 -45.029,45.03 C -45.029,-20.16 -24.869,0 0,0 Z"/>
      </g>
      <g transform="matrix(0.35277777,0,0,-0.35277777,134.893,118.20768)" id="g100">
        <path inkscape:connector-curvature="0" id="path102" style="fill:#f15a24;fill-opacity:1;fill-rule:nonzero;stroke:#f15a22;stroke-width:7;stroke-linecap:round;stroke-linejoin:miter;stroke-miterlimit:10;stroke-dasharray:none;stroke-opacity:1" d="M 0,0 -36.425,-36.138"/>
      </g>
      <g transform="matrix(0.35277777,0,0,-0.35277777,117.18641,82.794503)" id="g104">
        <path inkscape:connector-curvature="0" id="path106" style="fill:#000000;fill-opacity:1;fill-rule:nonzero;stroke:#000000;stroke-width:2;stroke-linecap:round;stroke-linejoin:round;stroke-miterlimit:10;stroke-dasharray:none;stroke-opacity:1" d="m 0,0 -32.123,32.123 c 7.17,-2.295 23.614,-2.773 26.291,7.648 L 5.832,28.107 C -4.876,25.526 -4.876,10.421 -1.816,1.816"/>
      </g>
      <g transform="matrix(0.35277777,0,0,-0.35277777,75.500041,82.457247)" id="g108">
        <path inkscape:connector-curvature="0" id="path110" style="fill:#000000;fill-opacity:1;fill-rule:nonzero;stroke:#000000;stroke-width:2;stroke-linecap:round;stroke-linejoin:round;stroke-miterlimit:10;stroke-dasharray:none;stroke-opacity:1" d="M 0,0 30.211,30.211 C 23.04,27.916 6.597,27.438 3.92,37.859 L -7.744,26.195 C 2.772,23.71 2.964,8.7 0,0"/>
      </g>
      <g transform="matrix(0.35277777,0,0,-0.35277777,116.54559,102.11999)" id="g112">
        <path inkscape:connector-curvature="0" id="path114" style="fill:#000000;fill-opacity:1;fill-rule:nonzero;stroke:#000000;stroke-width:2;stroke-linecap:round;stroke-linejoin:round;stroke-miterlimit:10;stroke-dasharray:none;stroke-opacity:1" d="m 0,0 -30.211,-30.211 c 7.171,2.295 23.614,0.956 26.291,-9.56 L 7.744,-28.107 C -2.868,-25.526 -3.059,-8.604 0,0"/>
      </g>
      <g transform="matrix(0.35277777,0,0,-0.35277777,76.174551,102.42352)" id="g116">
        <path inkscape:connector-curvature="0" id="path118" style="fill:#000000;fill-opacity:1;fill-rule:nonzero;stroke:#000000;stroke-width:2;stroke-linecap:round;stroke-linejoin:round;stroke-miterlimit:10;stroke-dasharray:none;stroke-opacity:1" d="m 0,0 32.123,-30.211 c -7.17,2.295 -25.526,2.773 -28.108,-7.648 L -7.648,-26.195 C 2.773,-23.71 2.964,-8.7 0,0"/>
      </g>
    </g>
  </g>
</svg>